<svg width="22" height="22" viewBox="0 0 22 22" fill="none" xmlns="http://www.w3.org/2000/svg">
<g clip-path="url(#clip0_3172_10199)">
<path d="M13.4023 16.2192L9.88935 16.221C9.73804 16.2211 9.5919 16.166 9.47833 16.066C9.36477 15.966 9.29158 15.828 9.27252 15.6779L9.26768 15.6002L9.26505 12.0828C9.26429 11.9243 9.32415 11.7715 9.43238 11.6557C9.5406 11.5399 9.68899 11.4698 9.84719 11.4598C10.0054 11.4498 10.1614 11.5007 10.2834 11.6019C10.4053 11.7032 10.4839 11.8473 10.5031 12.0046L10.5079 12.0824L10.5088 14.0954L15.1584 9.44591C15.266 9.33832 15.4093 9.27396 15.5613 9.26505C15.7132 9.25615 15.8631 9.30331 15.9826 9.39758L16.0375 9.44635C16.1451 9.55397 16.2094 9.69734 16.2183 9.84926C16.2272 10.0012 16.1801 10.1511 16.0858 10.2706L16.0375 10.325L11.3849 14.9776L13.401 14.9763C13.5523 14.9762 13.6984 15.0313 13.812 15.1313C13.9256 15.2313 13.9988 15.3692 14.0178 15.5193L14.0231 15.5975C14.0232 15.7489 13.9681 15.895 13.8681 16.0086C13.7682 16.1221 13.6302 16.1953 13.4801 16.2144L13.4023 16.2192ZM5.10933 11.6905L5.05529 11.6417C4.9477 11.5341 4.88334 11.3907 4.87444 11.2388C4.86553 11.0869 4.91269 10.937 5.00697 10.8175L5.05529 10.7631L9.70483 6.11352L7.68957 6.11396C7.53828 6.11395 7.39218 6.05874 7.2787 5.95868C7.16522 5.85863 7.09214 5.7206 7.07318 5.5705L7.06835 5.49273C7.06823 5.34143 7.12334 5.19528 7.22331 5.08172C7.32329 4.96815 7.46127 4.89497 7.61137 4.8759L7.68957 4.87151L11.2025 4.86975C11.3538 4.86964 11.5 4.92474 11.6136 5.02472C11.7271 5.12469 11.8003 5.26267 11.8194 5.41277L11.8242 5.49054L11.826 9.00701C11.8267 9.16552 11.7669 9.31833 11.6586 9.43415C11.5504 9.54997 11.402 9.62005 11.2438 9.63005C11.0856 9.64004 10.9296 9.58919 10.8076 9.4879C10.6857 9.38662 10.6071 9.24256 10.5879 9.08521L10.5831 9.00745L10.5817 6.99396L5.93353 11.6422C5.82591 11.7498 5.68254 11.8141 5.53062 11.823C5.3787 11.8319 5.22879 11.7848 5.10933 11.6905Z" fill="white"/>
</g>
<defs>
<clipPath id="clip0_3172_10199">
<rect width="14.9117" height="14.9117" fill="white" transform="translate(21.0883 10.5442) rotate(135)"/>
</clipPath>
</defs>
</svg>
