<svg xmlns="http://www.w3.org/2000/svg" viewBox="0 0 24 24" fill="none">
  <path d="M2 12C2 8.229 2 6.343 3.172 5.172C4.344 4.001 6.229 4 10 4H14C17.771 4 19.657 4 20.828 5.172C21.999 6.344 22 8.229 22 12V14C22 17.771 22 19.657 20.828 20.828C19.656 21.999 17.771 22 14 22H10C6.229 22 4.343 22 3.172 20.828C2.001 19.656 2 17.771 2 14V12Z" stroke="currentColor" stroke-width="1.5"/>
  <path opacity="0.5" d="M7 4V2.5M17 4V2.5M2 9H22" stroke="currentColor" stroke-width="1.5" stroke-linecap="round"/>
  <path d="M9 14.5L10.5 13V17" stroke="currentColor" stroke-width="1.5" stroke-linecap="round" stroke-linejoin="round"/>
  <path d="M13 16V14C13 13.7348 13.1054 13.4804 13.2929 13.2929C13.4804 13.1054 13.7348 13 14 13C14.2652 13 14.5196 13.1054 14.7071 13.2929C14.8946 13.4804 15 13.7348 15 14V16C15 16.2652 14.8946 16.5196 14.7071 16.7071C14.5196 16.8946 14.2652 17 14 17C13.7348 17 13.4804 16.8946 13.2929 16.7071C13.1054 16.5196 13 16.2652 13 16Z" stroke="currentColor" stroke-width="1.5" stroke-linecap="round"/>
</svg>