<svg xmlns="http://www.w3.org/2000/svg" width="19" height="19" viewBox="0 0 19 19" fill="none">
    <path d="M9.16667 10.45L11.825 13.1083C11.9931 13.2764 12.2069 13.3604 12.4667 13.3604C12.7264 13.3604 12.9403 13.2764 13.1083 13.1083C13.2764 12.9403 13.3604 12.7264 13.3604 12.4667C13.3604 12.2069 13.2764 11.9931 13.1083 11.825L10.45 9.16667L13.1083 6.50833C13.2764 6.34028 13.3604 6.12639 13.3604 5.86667C13.3604 5.60694 13.2764 5.39305 13.1083 5.225C12.9403 5.05694 12.7264 4.97292 12.4667 4.97292C12.2069 4.97292 11.9931 5.05694 11.825 5.225L9.16667 7.88333L6.50834 5.225C6.34028 5.05694 6.12639 4.97292 5.86667 4.97292C5.60695 4.97292 5.39306 5.05694 5.225 5.225C5.05695 5.39305 4.97292 5.60694 4.97292 5.86667C4.97292 6.12639 5.05695 6.34028 5.225 6.50833L7.88333 9.16667L5.225 11.825C5.05695 11.9931 4.97292 12.2069 4.97292 12.4667C4.97292 12.7264 5.05695 12.9403 5.225 13.1083C5.39306 13.2764 5.60695 13.3604 5.86667 13.3604C6.12639 13.3604 6.34028 13.2764 6.50834 13.1083L9.16667 10.45ZM9.16667 18.3333C7.89861 18.3333 6.70695 18.0926 5.59167 17.611C4.47639 17.1294 3.50625 16.4765 2.68125 15.6521C1.85625 14.8277 1.20328 13.8576 0.722335 12.7417C0.24139 11.6258 0.000612271 10.4341 1.16034e-06 9.16667C-0.000609951 7.89922 0.240168 6.70756 0.722335 5.59167C1.2045 4.47578 1.85747 3.50564 2.68125 2.68125C3.50503 1.85686 4.47517 1.20389 5.59167 0.722333C6.70817 0.240778 7.89983 0 9.16667 0C10.4335 0 11.6252 0.240778 12.7417 0.722333C13.8582 1.20389 14.8283 1.85686 15.6521 2.68125C16.4759 3.50564 17.1291 4.47578 17.6119 5.59167C18.0947 6.70756 18.3352 7.89922 18.3333 9.16667C18.3315 10.4341 18.0907 11.6258 17.611 12.7417C17.1313 13.8576 16.4783 14.8277 15.6521 15.6521C14.8259 16.4765 13.8557 17.1297 12.7417 17.6119C11.6276 18.0941 10.4359 18.3346 9.16667 18.3333ZM9.16667 16.5C11.2139 16.5 12.9479 15.7896 14.3688 14.3687C15.7896 12.9479 16.5 11.2139 16.5 9.16667C16.5 7.11944 15.7896 5.38542 14.3688 3.96458C12.9479 2.54375 11.2139 1.83333 9.16667 1.83333C7.11945 1.83333 5.38542 2.54375 3.96458 3.96458C2.54375 5.38542 1.83333 7.11944 1.83333 9.16667C1.83333 11.2139 2.54375 12.9479 3.96458 14.3687C5.38542 15.7896 7.11945 16.5 9.16667 16.5Z" fill="currentColor"/>
  </svg>