<svg xmlns="http://www.w3.org/2000/svg" width="14" height="36" viewBox="0 0 14 36" fill="none">
  <g filter="url(#filter0_ii_1329_54757)">
    <path d="M0.621113 5.0629C0.670536 3.34125 1.81454 1.85282 3.45674 1.32451L3.57268 1.28721C5.97293 0.515039 8.55836 0.567374 10.9166 1.43587C12.4742 2.00954 13.5088 3.48892 13.5121 5.15147C13.5178 8.07107 13.5227 13.037 13.5079 18.7393C13.4956 23.4759 13.343 28.2347 13.2198 31.3438C13.1381 33.403 11.6057 35.1109 9.56991 35.4419L8.94848 35.5429C7.47349 35.7827 5.96858 35.752 4.50751 35.4523L4.26627 35.4028C2.25608 34.9904 0.812647 33.2323 0.789702 31.1786C0.758322 28.3702 0.697277 24.0369 0.581434 18.7557C0.453027 12.9017 0.537366 7.98021 0.621113 5.0629Z" fill="url(#paint0_linear_1329_54757)"/>
  </g>
  <path d="M1.97168 11.4095C1.70018 10.1133 2.48453 8.77561 3.77517 8.46079L3.88045 8.43511C5.98146 7.92263 8.17584 7.96327 10.2489 8.55306C11.4774 8.90257 12.1728 10.2171 11.8759 11.4634C11.4056 13.4379 10.8461 16.5317 10.8526 20.0573C10.8581 22.9865 11.2725 25.9363 11.6465 28.0065C11.9181 29.51 10.8859 30.9932 9.36588 31.1783L9.11408 31.209C7.52898 31.402 5.92616 31.3724 4.35233 31.1208C2.92652 30.893 2.03195 29.3983 2.33434 27.9831C2.73456 26.1101 3.12636 23.3614 3.0144 20.0573C2.89236 16.4556 2.38577 13.3864 1.97168 11.4095Z" fill="#A7A5A5"/>
  <g filter="url(#filter1_di_1329_54757)">
    <path d="M4.54492 1.59961C6.12523 0.839622 7.97483 0.824075 9.55273 1.56934C11.4131 2.4482 12.6106 4.30158 12.6406 6.36328C12.6549 7.34722 12.6667 8.49388 12.6818 9.7276C12.6823 9.77134 12.6243 9.79012 12.5974 9.75561C12.5702 9.72076 12.5164 9.74579 12.5213 9.78969C12.5523 10.0628 12.5412 10.3443 12.4824 10.624C12.0228 12.813 11.4495 16.3675 11.46 20.4424C11.4683 23.6732 11.93 26.9267 12.3525 29.2354C12.4297 29.657 12.4162 30.0772 12.3278 30.4749C12.325 30.4878 12.3405 30.4956 12.3487 30.4853C12.3563 30.4757 12.3714 30.4816 12.3706 30.4938C12.3245 31.2288 12.2833 31.8599 12.249 32.3467C12.2021 33.0107 11.764 33.5801 11.1357 33.8037L10.8633 33.9004C8.203 34.8471 5.29675 34.8101 2.67383 33.7959C2.10538 33.5761 1.7169 33.0498 1.68066 32.4404C1.64845 31.8987 1.60619 31.1551 1.55762 30.2582C1.55474 30.205 1.62981 30.1826 1.65932 30.2269C1.68835 30.2704 1.75436 30.2424 1.74856 30.1904C1.71259 29.8675 1.7258 29.5357 1.7959 29.208C2.24303 27.1173 2.67303 24.0792 2.54492 20.4375C2.39925 16.2971 1.79085 12.7862 1.31152 10.5859C1.28638 10.4705 1.2719 10.3544 1.2632 10.2389C1.26258 10.2307 1.25167 10.2292 1.24906 10.2369C1.24624 10.2452 1.23418 10.243 1.23454 10.2342C1.29466 8.73526 1.36293 7.35215 1.42676 6.20605C1.53732 4.22354 2.7515 2.4623 4.54492 1.59961ZM10.3086 8.13867C8.26931 7.54265 6.1044 7.50191 4.03711 8.02051L3.93359 8.0459C2.70971 8.35307 1.96665 9.61927 2.2207 10.8516C2.62497 12.8126 3.13145 15.9138 3.25098 19.5654C3.36077 22.9203 2.96237 25.6998 2.56641 27.5645C2.27955 28.9155 3.13309 30.3372 4.49316 30.5605C6.04862 30.8158 7.63437 30.8458 9.20117 30.6494L9.44531 30.6191C10.8946 30.4375 11.8781 29.0259 11.623 27.5908C11.2563 25.5269 10.8406 22.535 10.8359 19.5645C10.8304 15.9937 11.393 12.8682 11.8535 10.9102C12.1321 9.72563 11.4731 8.47925 10.3086 8.13867Z" fill="url(#paint1_linear_1329_54757)"/>
  </g>
  <g filter="url(#filter2_di_1329_54757)">
    <path d="M1.45631 9.24854C1.42498 9.13519 1.49385 9.01726 1.60851 8.98929L7.03331 7.66605C7.06784 7.65763 7.1039 7.6583 7.13796 7.66799L12.3012 9.13694C12.4139 9.16901 12.4771 9.28793 12.4413 9.39994C12.1298 10.3734 10.8427 14.7206 10.8526 20.0573C10.8614 24.7651 11.9266 29.5263 12.1826 30.6031C12.2112 30.7236 12.1278 30.8419 12.0046 30.8569L6.75338 31.4965C6.73436 31.4988 6.71514 31.4984 6.69626 31.4954L1.84119 30.7195C1.71341 30.6991 1.63499 30.5688 1.67651 30.4458C2.00585 29.4704 3.19964 25.524 3.0144 20.0573C2.82631 14.5065 1.72488 10.2205 1.45631 9.24854Z" fill="url(#paint2_linear_1329_54757)"/>
  </g>
  <g filter="url(#filter3_d_1329_54757)">
    <g filter="url(#filter4_d_1329_54757)">
      <path d="M12.3661 4.27239C11.9335 3.34348 11.2991 3.09136 10.8645 3.07727C10.7192 3.07256 10.6649 3.23771 10.7535 3.35305C11.4528 4.26382 12.0762 5.69552 12.4476 6.70084C12.5176 6.89036 12.7667 6.86942 12.7777 6.66784C12.8139 6.00234 12.7475 5.09113 12.3661 4.27239Z" fill="white"/>
      <path d="M11.1849 3.44383C11.6892 4.17892 12.1392 5.13092 12.4736 5.95014C12.4382 5.45145 12.3315 4.90214 12.0963 4.39707C11.8237 3.8122 11.4766 3.55194 11.1849 3.44383Z" stroke="white" stroke-width="0.594608" stroke-linecap="round"/>
    </g>
  </g>
  <g filter="url(#filter5_d_1329_54757)">
    <path d="M1.50125 4.3231C1.93404 3.33685 2.59703 3.06489 3.04945 3.04559C3.19458 3.0394 3.25209 3.20369 3.1659 3.32063C2.44985 4.2922 1.82673 5.82196 1.46366 6.88198C1.39822 7.07303 1.14781 7.05821 1.1313 6.85694C1.07432 6.16221 1.11796 5.19655 1.50125 4.3231Z" fill="white"/>
    <path d="M2.74383 3.40786C2.21348 4.209 1.74863 5.26012 1.41269 6.14815C1.43176 5.60727 1.52846 5.00131 1.7737 4.44245C2.05618 3.79883 2.43169 3.51912 2.74383 3.40786Z" stroke="white" stroke-width="0.594608" stroke-linecap="round"/>
  </g>
  <g filter="url(#filter6_di_1329_54757)">
    <path d="M1.24805 10.2334C1.24014 10.4493 1.25671 10.6686 1.30469 10.8867C1.78206 13.0562 2.38099 16.4888 2.52539 20.5303C2.65186 24.0701 2.2349 27.0305 1.79395 29.0859C1.75874 29.25 1.73659 29.4155 1.72852 29.5801C1.60125 29.2908 1.52364 28.9752 1.50684 28.6436C1.4042 26.615 1.25117 23.2705 1.12891 19.1914C1.01753 15.4756 1.1265 12.3282 1.24805 10.2334ZM3.49121 6.93359C5.88316 6.30289 8.39953 6.35016 10.7568 7.07031L10.9863 7.14063C11.9377 7.43128 12.602 8.2848 12.6396 9.28027C12.7164 11.3105 12.8291 15.017 12.8301 19.3213C12.8309 22.8489 12.6189 26.4051 12.4541 28.6328C12.4386 28.8422 12.3967 29.0443 12.3379 29.2383C12.3318 29.1954 12.3253 29.1523 12.3174 29.1094C11.899 26.8418 11.4487 23.677 11.4404 20.5342C11.43 16.5561 11.9936 13.0821 12.4512 10.9229C12.725 9.63051 11.994 8.29703 10.7295 7.92871L10.4961 7.86035C8.30049 7.22087 5.97266 7.16146 3.73926 7.6875L3.17773 7.81934C2.09447 8.07448 1.35275 9.02768 1.25586 10.0918C1.27742 9.73023 1.29935 9.40188 1.32031 9.10938C1.39112 8.12144 2.09464 7.30178 3.05371 7.04883L3.49121 6.93359Z" fill="url(#paint3_linear_1329_54757)"/>
  </g>
  <g filter="url(#filter7_ii_1329_54757)">
    <path d="M4.47461 2.26953C6.05942 1.53422 7.89482 1.51988 9.47559 2.24023C11.4227 3.12774 12.6829 5.05134 12.7148 7.19629C12.7293 8.16523 12.7415 9.28288 12.7566 10.4803C12.757 10.507 12.7217 10.5178 12.7064 10.496C12.6909 10.4739 12.6571 10.4874 12.6595 10.5143C12.6825 10.7734 12.6696 11.0388 12.6123 11.3027C12.1402 13.4752 11.5615 16.9608 11.5723 20.9502C11.5806 24.0444 12.0268 27.1597 12.4512 29.4287C12.4792 29.5785 12.4942 29.7282 12.501 29.877C12.4862 30.1197 12.4715 30.3547 12.457 30.5811C12.4428 30.6642 12.4268 30.7468 12.4069 30.8283C12.4044 30.8382 12.4165 30.8443 12.4228 30.8362C12.4285 30.8288 12.4401 30.8333 12.4395 30.8426C12.3931 31.5585 12.3516 32.1773 12.3164 32.6621C12.2653 33.3651 11.7959 33.966 11.1279 34.1953L10.8525 34.29C8.14019 35.2213 5.19553 35.1843 2.52148 34.1865C1.91763 33.9611 1.50357 33.4071 1.46387 32.7627C1.43449 32.2845 1.3968 31.6582 1.35456 30.9153C1.35003 30.8358 1.45718 30.7972 1.50874 30.8579C1.56157 30.9201 1.65731 30.8643 1.64006 30.7845C1.54379 30.3396 1.53634 29.8704 1.63574 29.4092C2.07979 27.3489 2.48808 24.4261 2.36035 20.9463C2.21157 16.8937 1.59605 13.4501 1.10352 11.2676C1.05248 11.0414 1.03457 10.8134 1.04374 10.5894C1.04401 10.5828 1.03575 10.5805 1.03281 10.5864C1.02984 10.5923 1.02138 10.59 1.02166 10.5834C1.07759 9.2744 1.13845 8.06209 1.19727 7.03125C1.31508 4.9683 2.59523 3.14156 4.47461 2.26953ZM10.2471 8.75488C8.19948 8.17748 6.03338 8.1383 3.95801 8.64062L3.85352 8.66504C2.56458 8.97721 1.78107 10.315 2.05273 11.6084C2.46196 13.5559 2.95857 16.5632 3.07812 20.0879C3.18771 23.3198 2.80429 26.0122 2.40918 27.8555C2.10682 29.266 2.99767 30.7571 4.41895 30.9824C5.97129 31.2282 7.55268 31.2575 9.11621 31.0684L9.36523 31.0381C10.8811 30.8548 11.9113 29.3737 11.6396 27.875C11.2706 25.8388 10.865 22.9522 10.8604 20.0859C10.8548 16.6347 11.4044 13.6036 11.8701 11.6582C12.1679 10.4142 11.4739 9.10101 10.2471 8.75488Z" fill="url(#paint4_linear_1329_54757)"/>
  </g>
  <g filter="url(#filter8_ii_1329_54757)">
    <path d="M2.64258 15.1539C5.35678 14.1167 8.35521 14.0998 11.0809 15.1064L11.1759 15.1414C11.1759 15.1414 10.9384 16.9369 10.9384 20.7525C11.0295 24.5445 11.3585 26.2477 11.3585 26.2477L11.0332 26.3187C8.28228 26.9195 5.43081 26.8871 2.69424 26.2241C2.69424 26.2241 3.03823 23.3071 3.01871 20.749C3.00194 18.5508 2.64258 15.1539 2.64258 15.1539Z" fill="url(#paint5_linear_1329_54757)"/>
  </g>
  <defs>
    <filter id="filter0_ii_1329_54757" x="0.515625" y="-0.0486699" width="13.5966" height="35.7518" filterUnits="userSpaceOnUse" color-interpolation-filters="sRGB">
      <feFlood flood-opacity="0" result="BackgroundImageFix"/>
      <feBlend mode="normal" in="SourceGraphic" in2="BackgroundImageFix" result="shape"/>
      <feColorMatrix in="SourceAlpha" type="matrix" values="0 0 0 0 0 0 0 0 0 0 0 0 0 0 0 0 0 0 127 0" result="hardAlpha"/>
      <feOffset dx="0.594608" dy="-0.792811"/>
      <feGaussianBlur stdDeviation="2.37843"/>
      <feComposite in2="hardAlpha" operator="arithmetic" k2="-1" k3="1"/>
      <feColorMatrix type="matrix" values="0 0 0 0 0 0 0 0 0 0 0 0 0 0 0 0 0 0 0.07 0"/>
      <feBlend mode="normal" in2="shape" result="effect1_innerShadow_1329_54757"/>
      <feColorMatrix in="SourceAlpha" type="matrix" values="0 0 0 0 0 0 0 0 0 0 0 0 0 0 0 0 0 0 127 0" result="hardAlpha"/>
      <feOffset dy="-0.0991013"/>
      <feGaussianBlur stdDeviation="0.198203"/>
      <feComposite in2="hardAlpha" operator="arithmetic" k2="-1" k3="1"/>
      <feColorMatrix type="matrix" values="0 0 0 0 0 0 0 0 0 0 0 0 0 0 0 0 0 0 0.25 0"/>
      <feBlend mode="normal" in2="effect1_innerShadow_1329_54757" result="effect2_innerShadow_1329_54757"/>
    </filter>
    <filter id="filter1_di_1329_54757" x="0.83797" y="1.01953" width="11.9462" height="33.9609" filterUnits="userSpaceOnUse" color-interpolation-filters="sRGB">
      <feFlood flood-opacity="0" result="BackgroundImageFix"/>
      <feColorMatrix in="SourceAlpha" type="matrix" values="0 0 0 0 0 0 0 0 0 0 0 0 0 0 0 0 0 0 127 0" result="hardAlpha"/>
      <feOffset dy="0.102484"/>
      <feGaussianBlur stdDeviation="0.0512418"/>
      <feColorMatrix type="matrix" values="0 0 0 0 0.925374 0 0 0 0 0.925374 0 0 0 0 0.925374 0 0 0 0.37 0"/>
      <feBlend mode="normal" in2="BackgroundImageFix" result="effect1_dropShadow_1329_54757"/>
      <feBlend mode="normal" in="SourceGraphic" in2="effect1_dropShadow_1329_54757" result="shape"/>
      <feColorMatrix in="SourceAlpha" type="matrix" values="0 0 0 0 0 0 0 0 0 0 0 0 0 0 0 0 0 0 127 0" result="hardAlpha"/>
      <feOffset dx="-0.396405" dy="0.495507"/>
      <feGaussianBlur stdDeviation="0.198203"/>
      <feComposite in2="hardAlpha" operator="arithmetic" k2="-1" k3="1"/>
      <feColorMatrix type="matrix" values="0 0 0 0 0 0 0 0 0 0 0 0 0 0 0 0 0 0 0.8 0"/>
      <feBlend mode="normal" in2="shape" result="effect2_innerShadow_1329_54757"/>
    </filter>
    <filter id="filter2_di_1329_54757" x="1.05281" y="7.66016" width="11.5008" height="24.2343" filterUnits="userSpaceOnUse" color-interpolation-filters="sRGB">
      <feFlood flood-opacity="0" result="BackgroundImageFix"/>
      <feColorMatrix in="SourceAlpha" type="matrix" values="0 0 0 0 0 0 0 0 0 0 0 0 0 0 0 0 0 0 127 0" result="hardAlpha"/>
      <feOffset dy="0.102484"/>
      <feGaussianBlur stdDeviation="0.0512418"/>
      <feColorMatrix type="matrix" values="0 0 0 0 0.925374 0 0 0 0 0.925374 0 0 0 0 0.925374 0 0 0 0.37 0"/>
      <feBlend mode="normal" in2="BackgroundImageFix" result="effect1_dropShadow_1329_54757"/>
      <feBlend mode="normal" in="SourceGraphic" in2="effect1_dropShadow_1329_54757" result="shape"/>
      <feColorMatrix in="SourceAlpha" type="matrix" values="0 0 0 0 0 0 0 0 0 0 0 0 0 0 0 0 0 0 127 0" result="hardAlpha"/>
      <feOffset dx="-0.396405" dy="0.495507"/>
      <feGaussianBlur stdDeviation="0.198203"/>
      <feComposite in2="hardAlpha" operator="arithmetic" k2="-1" k3="1"/>
      <feColorMatrix type="matrix" values="0 0 0 0 0 0 0 0 0 0 0 0 0 0 0 0 0 0 0.8 0"/>
      <feBlend mode="normal" in2="shape" result="effect2_innerShadow_1329_54757"/>
    </filter>
    <filter id="filter3_d_1329_54757" x="10.5127" y="2.68172" width="2.47258" height="4.15031" filterUnits="userSpaceOnUse" color-interpolation-filters="sRGB">
      <feFlood flood-opacity="0" result="BackgroundImageFix"/>
      <feColorMatrix in="SourceAlpha" type="matrix" values="0 0 0 0 0 0 0 0 0 0 0 0 0 0 0 0 0 0 127 0" result="hardAlpha"/>
      <feOffset dy="-0.198203"/>
      <feGaussianBlur stdDeviation="0.0991013"/>
      <feColorMatrix type="matrix" values="0 0 0 0 0 0 0 0 0 0 0 0 0 0 0 0 0 0 0.25 0"/>
      <feBlend mode="normal" in2="BackgroundImageFix" result="effect1_dropShadow_1329_54757"/>
      <feBlend mode="normal" in="SourceGraphic" in2="effect1_dropShadow_1329_54757" result="shape"/>
    </filter>
    <filter id="filter4_d_1329_54757" x="10.6118" y="3.07812" width="2.27437" height="3.95211" filterUnits="userSpaceOnUse" color-interpolation-filters="sRGB">
      <feFlood flood-opacity="0" result="BackgroundImageFix"/>
      <feColorMatrix in="SourceAlpha" type="matrix" values="0 0 0 0 0 0 0 0 0 0 0 0 0 0 0 0 0 0 127 0" result="hardAlpha"/>
      <feOffset dy="0.0991013"/>
      <feGaussianBlur stdDeviation="0.0495507"/>
      <feColorMatrix type="matrix" values="0 0 0 0 1 0 0 0 0 1 0 0 0 0 1 0 0 0 0.25 0"/>
      <feBlend mode="normal" in2="BackgroundImageFix" result="effect1_dropShadow_1329_54757"/>
      <feBlend mode="normal" in="SourceGraphic" in2="effect1_dropShadow_1329_54757" result="shape"/>
    </filter>
    <filter id="filter5_d_1329_54757" x="0.913125" y="2.64852" width="2.49211" height="4.36906" filterUnits="userSpaceOnUse" color-interpolation-filters="sRGB">
      <feFlood flood-opacity="0" result="BackgroundImageFix"/>
      <feColorMatrix in="SourceAlpha" type="matrix" values="0 0 0 0 0 0 0 0 0 0 0 0 0 0 0 0 0 0 127 0" result="hardAlpha"/>
      <feOffset dy="-0.198203"/>
      <feGaussianBlur stdDeviation="0.0991013"/>
      <feColorMatrix type="matrix" values="0 0 0 0 0 0 0 0 0 0 0 0 0 0 0 0 0 0 0.25 0"/>
      <feBlend mode="normal" in2="BackgroundImageFix" result="effect1_dropShadow_1329_54757"/>
      <feBlend mode="normal" in="SourceGraphic" in2="effect1_dropShadow_1329_54757" result="shape"/>
    </filter>
    <filter id="filter6_di_1329_54757" x="0.685626" y="6.49219" width="12.2469" height="23.4843" filterUnits="userSpaceOnUse" color-interpolation-filters="sRGB">
      <feFlood flood-opacity="0" result="BackgroundImageFix"/>
      <feColorMatrix in="SourceAlpha" type="matrix" values="0 0 0 0 0 0 0 0 0 0 0 0 0 0 0 0 0 0 127 0" result="hardAlpha"/>
      <feOffset dy="0.102484"/>
      <feGaussianBlur stdDeviation="0.0512418"/>
      <feColorMatrix type="matrix" values="0 0 0 0 0.925374 0 0 0 0 0.925374 0 0 0 0 0.925374 0 0 0 0.37 0"/>
      <feBlend mode="normal" in2="BackgroundImageFix" result="effect1_dropShadow_1329_54757"/>
      <feBlend mode="normal" in="SourceGraphic" in2="effect1_dropShadow_1329_54757" result="shape"/>
      <feColorMatrix in="SourceAlpha" type="matrix" values="0 0 0 0 0 0 0 0 0 0 0 0 0 0 0 0 0 0 127 0" result="hardAlpha"/>
      <feOffset dx="-0.396405" dy="0.495507"/>
      <feGaussianBlur stdDeviation="0.198203"/>
      <feComposite in2="hardAlpha" operator="arithmetic" k2="-1" k3="1"/>
      <feColorMatrix type="matrix" values="0 0 0 0 0 0 0 0 0 0 0 0 0 0 0 0 0 0 0.8 0"/>
      <feBlend mode="normal" in2="shape" result="effect2_innerShadow_1329_54757"/>
    </filter>
    <filter id="filter7_ii_1329_54757" x="1.02148" y="0.916174" width="12.329" height="34.0467" filterUnits="userSpaceOnUse" color-interpolation-filters="sRGB">
      <feFlood flood-opacity="0" result="BackgroundImageFix"/>
      <feBlend mode="normal" in="SourceGraphic" in2="BackgroundImageFix" result="shape"/>
      <feColorMatrix in="SourceAlpha" type="matrix" values="0 0 0 0 0 0 0 0 0 0 0 0 0 0 0 0 0 0 127 0" result="hardAlpha"/>
      <feOffset dx="0.594608" dy="-0.79281"/>
      <feGaussianBlur stdDeviation="2.37843"/>
      <feComposite in2="hardAlpha" operator="arithmetic" k2="-1" k3="1"/>
      <feColorMatrix type="matrix" values="0 0 0 0 0 0 0 0 0 0 0 0 0 0 0 0 0 0 0.07 0"/>
      <feBlend mode="normal" in2="shape" result="effect1_innerShadow_1329_54757"/>
      <feColorMatrix in="SourceAlpha" type="matrix" values="0 0 0 0 0 0 0 0 0 0 0 0 0 0 0 0 0 0 127 0" result="hardAlpha"/>
      <feOffset dy="-0.0991013"/>
      <feGaussianBlur stdDeviation="0.198203"/>
      <feComposite in2="hardAlpha" operator="arithmetic" k2="-1" k3="1"/>
      <feColorMatrix type="matrix" values="0 0 0 0 0 0 0 0 0 0 0 0 0 0 0 0 0 0 0.09 0"/>
      <feBlend mode="normal" in2="effect1_innerShadow_1329_54757" result="effect2_innerShadow_1329_54757"/>
    </filter>
    <filter id="filter8_ii_1329_54757" x="2.64258" y="13.5705" width="9.3114" height="13.1756" filterUnits="userSpaceOnUse" color-interpolation-filters="sRGB">
      <feFlood flood-opacity="0" result="BackgroundImageFix"/>
      <feBlend mode="normal" in="SourceGraphic" in2="BackgroundImageFix" result="shape"/>
      <feColorMatrix in="SourceAlpha" type="matrix" values="0 0 0 0 0 0 0 0 0 0 0 0 0 0 0 0 0 0 127 0" result="hardAlpha"/>
      <feOffset dx="0.594608" dy="-0.79281"/>
      <feGaussianBlur stdDeviation="2.37843"/>
      <feComposite in2="hardAlpha" operator="arithmetic" k2="-1" k3="1"/>
      <feColorMatrix type="matrix" values="0 0 0 0 0 0 0 0 0 0 0 0 0 0 0 0 0 0 0.07 0"/>
      <feBlend mode="normal" in2="shape" result="effect1_innerShadow_1329_54757"/>
      <feColorMatrix in="SourceAlpha" type="matrix" values="0 0 0 0 0 0 0 0 0 0 0 0 0 0 0 0 0 0 127 0" result="hardAlpha"/>
      <feOffset dy="-0.0991013"/>
      <feGaussianBlur stdDeviation="0.198203"/>
      <feComposite in2="hardAlpha" operator="arithmetic" k2="-1" k3="1"/>
      <feColorMatrix type="matrix" values="0 0 0 0 0 0 0 0 0 0 0 0 0 0 0 0 0 0 0.25 0"/>
      <feBlend mode="normal" in2="effect1_innerShadow_1329_54757" result="effect2_innerShadow_1329_54757"/>
    </filter>
    <linearGradient id="paint0_linear_1329_54757" x1="5.79611" y1="34.2126" x2="-3.41114" y2="32.0437" gradientUnits="userSpaceOnUse">
      <stop stop-color="#D8D8D8"/>
      <stop offset="1" stop-color="white"/>
    </linearGradient>
    <linearGradient id="paint1_linear_1329_54757" x1="12.2476" y1="98.7086" x2="-17.259" y2="89.2115" gradientUnits="userSpaceOnUse">
      <stop stop-color="#E8EAE9"/>
      <stop offset="0.498386" stop-color="#707072"/>
      <stop offset="1" stop-color="#2F3032"/>
    </linearGradient>
    <linearGradient id="paint2_linear_1329_54757" x1="10.8453" y1="77.1251" x2="-15.617" y2="64.6762" gradientUnits="userSpaceOnUse">
      <stop stop-color="#E8EAE9"/>
      <stop offset="0.498386" stop-color="#707072"/>
      <stop offset="1" stop-color="#2F3032"/>
    </linearGradient>
    <linearGradient id="paint3_linear_1329_54757" x1="12.3838" y1="73.682" x2="-14.7672" y2="60.6453" gradientUnits="userSpaceOnUse">
      <stop stop-color="#E8EAE9"/>
      <stop offset="0.498386" stop-color="#707072"/>
      <stop offset="1" stop-color="#2F3032"/>
    </linearGradient>
    <linearGradient id="paint4_linear_1329_54757" x1="6.1437" y1="33.4038" x2="-2.11438" y2="31.7055" gradientUnits="userSpaceOnUse">
      <stop stop-color="#D8D8D8"/>
      <stop offset="1" stop-color="white"/>
    </linearGradient>
    <linearGradient id="paint5_linear_1329_54757" x1="10.0609" y1="29.4619" x2="0.742868" y2="26.1779" gradientUnits="userSpaceOnUse">
      <stop stop-color="#D2D2D2"/>
      <stop offset="0.350909" stop-color="#CACACA"/>
      <stop offset="1" stop-color="#F6F6F6"/>
    </linearGradient>
  </defs>
</svg>