<svg viewBox="0 0 185 131" fill="none" xmlns="http://www.w3.org/2000/svg">
<path d="M87.9961 93.2523L93.6056 105.111C94.0905 107.237 94.8328 109.429 95.84 111.606C96.9324 113.966 98.2395 116.098 99.6767 117.945L105.174 129.567L114.816 124.924C114.871 124.9 114.925 124.876 114.979 124.851C120.889 122.099 121.903 111.706 117.243 101.639C112.584 91.5714 104.015 85.6414 98.1046 88.3936C98.0417 88.4228 97.9792 88.4534 97.9175 88.4842L97.9163 88.4822L87.9961 93.2523Z" fill="currentColor"/>
<path d="M85.9894 116.757C90.5913 126.699 99.0409 132.562 104.862 129.851C110.683 127.141 111.672 116.883 107.07 106.941C102.468 96.9979 93.7585 90.6003 87.9373 93.3111C82.1161 96.0217 81.3873 106.814 85.9894 116.757Z" fill="currentColor"/>
<path d="M12.6367 57.7043L15.54 68.5755C15.6225 70.4311 15.9088 72.3798 16.4189 74.3565C16.9722 76.5003 17.7397 78.4871 18.6592 80.2564L21.5029 90.9066L30.2905 88.498C30.3547 88.4835 30.4192 88.4683 30.4833 88.4517C35.8794 87.0476 38.3309 78.4601 35.9592 69.2712C33.5876 60.0825 27.2909 53.7718 21.8949 55.1759C21.8358 55.1914 21.7767 55.2078 21.7181 55.2249L21.7169 55.2206L12.6367 57.7043Z" fill="currentColor"/>
<path d="M21.4494 90.9134C26.8493 89.5257 29.3135 80.9557 26.9533 71.7719C24.5931 62.5881 18.3023 56.2682 12.9024 57.656C7.5025 59.0437 5.03832 67.6136 7.39851 76.7974C9.7587 85.9812 16.0495 92.3012 21.4494 90.9134Z" fill="currentColor"/>
<path d="M183.022 103.012C184.351 100.34 183.984 97.977 184.02 95.8379L183.945 90.382C183.886 86.0495 183.875 82.3372 183.813 80.9148C183.754 79.4924 185.262 75.3576 177.617 67.8404C170.751 61.0905 155.762 53.3592 152.041 52.4185C148.319 51.4776 132.311 29.1488 126.413 24.8199C108.797 11.8907 64.422 -0.150259 53.4901 0.00178243C47.1545 -0.178443 20.86 13.3644 17.9327 15.2283C2.79704 24.8663 13.0619 20.9278 1.98195 35.417C1.2787 36.1637 0.835032 39.8717 0.960374 41.9911C0.972685 42.2014 0.947916 42.4115 0.874639 42.6093C0.579307 43.4086 0.110574 44.6347 0.0616235 44.8748C-0.28518 46.5739 0.943909 54.9717 0.966752 56.6086C0.993452 58.5208 0.662967 61.9947 1.06836 63.9204C1.47391 65.8459 6.39887 70.3941 6.43818 69.8095C6.47763 69.2248 6.74597 65.9379 6.58443 63.6779C6.5297 59.7441 9.76782 56.3382 13.0506 55.5995C17.3221 54.6381 21.258 55.9496 24.4263 61.3188C30.7469 72.0293 27.5101 77.682 27.9078 81.9804C27.9483 82.4186 28.2375 82.785 28.6314 82.9815L81.0964 109.156C82.1681 109.691 83.2601 108.763 83.1758 107.568C83.1621 107.373 83.1459 107.118 83.1206 106.758C82.9535 104.368 82.9145 93.1986 89.8456 90.6977C95.9526 88.4939 103.864 96.1172 107.618 102.335C110.626 107.319 113.073 117.35 113.724 123.206C113.779 123.701 114.072 124.135 114.518 124.356C118.205 126.186 128.448 130.9 143.468 125.951C175.254 115.479 181.696 105.679 183.022 103.012Z" fill="currentColor"/>
<defs>
</defs>
</svg>
