<svg width="36" height="36" viewBox="0 0 36 36" fill="none" xmlns="http://www.w3.org/2000/svg">
<g clip-path="url(#clip0_3200_8740)">
<path d="M32.6449 21.2888C29.4392 22.3987 23.0035 23.5877 16.3891 24.7759C11.8768 20.3489 10.0664 12.0159 5.24023 6.00703C10.4222 5.12401 15.461 4.93349 20.3402 5.51295C24.1466 11.9842 26.032 17.0279 30.3555 20.0121C31.0496 20.492 31.8069 20.9181 32.6449 21.2888Z" fill="#29E568"/>
<path d="M13.5197 20.6497C16.9388 19.1852 21.3693 18.2008 28.3138 18.4097L27.2087 17.3086L12.5977 19.3359L13.5197 20.6497Z" fill="#06895D"/>
<path d="M30.3555 20.0137L32.6449 21.2904C31.8069 20.9196 31.0496 20.4935 30.3555 20.0137Z" fill="#29CE31"/>
<path d="M16.8299 23.4104C14.8483 21.25 13.3776 18.1691 11.8268 14.9203C10.5439 12.2325 9.22534 9.47037 7.50195 6.93997C9.94083 6.61141 12.339 6.44531 14.6549 6.44531C16.3121 6.44531 17.9622 6.53031 19.5692 6.69825C20.3142 7.9841 20.9882 9.21183 21.6425 10.4039C24.0708 14.8274 26.0901 18.506 29.5143 20.911C26.1761 21.7219 21.4777 22.5751 16.8299 23.4104Z" fill="#06895D"/>
<path d="M32.645 21.2877L31.4252 27.3811C26.8117 28.6744 20.5316 30.1527 15.6857 30.8128C11.6745 29.4523 9.84206 26.74 7.36532 21.5841C5.63327 17.9785 5.04036 16.3144 2.9668 13.5926L5.24037 6.00586C10.0666 12.0147 11.8769 20.3477 16.3893 24.7747C23.0036 23.5865 29.4394 22.3976 32.645 21.2877Z" fill="#06895D"/>
<path d="M25.3994 20.077C25.3994 20.3355 25.4966 20.5782 25.6666 20.7877C23.8246 21.1632 21.7605 21.5514 19.5383 21.9569C19.3439 21.1941 18.415 20.6162 17.298 20.6162C16.8442 20.6162 16.4213 20.7118 16.0655 20.8763C15.8592 20.5664 15.6576 20.2454 15.4592 19.9142C15.2829 19.6209 15.1098 19.3197 14.939 19.0114C14.1651 17.6177 13.4338 16.0864 12.682 14.5125C11.8283 12.7235 10.9547 10.895 9.95312 9.11315C10.5832 8.9329 11.0338 8.46412 11.0338 7.91154C11.0338 7.77952 11.0085 7.65303 10.9611 7.53367C12.2125 7.44196 13.4473 7.39453 14.6536 7.39453C15.5904 7.39453 16.5256 7.4222 17.4521 7.47753C17.63 7.97083 18.1067 8.40482 18.7423 8.58428C19.0324 8.66571 19.3209 8.68468 19.5881 8.65147C20.0103 9.40407 20.4143 10.14 20.8103 10.861C22.1748 13.3464 23.4357 15.6429 24.9108 17.6272C25.1045 17.8873 25.3013 18.1426 25.5029 18.3916C25.6792 18.6098 25.8587 18.8233 26.0421 19.032C25.6468 19.292 25.3994 19.6636 25.3994 20.077Z" fill="#09A867"/>
<path d="M25.5033 18.3933C21.2511 18.4716 18.0605 19.0534 15.4596 19.9159C15.2833 19.6226 15.1102 19.3214 14.9395 19.0131L24.9112 17.6289C25.1049 17.889 25.3018 18.1443 25.5033 18.3933Z" fill="#06895D"/>
<path d="M16.389 25.1313C16.2966 25.1313 16.207 25.0953 16.1399 25.0294C13.7242 22.6594 12.0918 19.2397 10.3636 15.6193C8.82166 12.389 7.22727 9.04888 4.96311 6.22926C4.88416 6.13094 4.86319 5.99819 4.90793 5.88029C4.95267 5.76241 5.05645 5.67701 5.18076 5.65585C10.4631 4.75588 15.5777 4.58888 20.3823 5.15936C20.4927 5.17249 20.5906 5.23643 20.647 5.33226C21.5742 6.90887 22.3744 8.37628 23.1482 9.79541C26.0287 15.0779 28.1099 18.8945 32.7884 20.9633C32.9221 21.0224 33.0061 21.1573 33 21.3034C32.9939 21.4494 32.8991 21.5769 32.761 21.6248C29.595 22.7215 23.5017 23.8591 16.4519 25.1256C16.4309 25.1294 16.4099 25.1313 16.389 25.1313ZM5.89038 6.25966C8.00935 9.03573 9.53123 12.224 11.0056 15.3127C12.6743 18.8084 14.2521 22.1138 16.5086 24.3926C22.8659 23.2498 28.4217 22.213 31.6862 21.2243C29.7921 20.2459 28.2045 18.8954 26.7416 17.0282C25.229 15.0976 23.9753 12.7983 22.5236 10.136C21.7775 8.7679 21.0069 7.35458 20.1232 5.84541C15.6163 5.32819 10.8318 5.46761 5.89038 6.25966Z" fill="#080F66"/>
<path d="M22.444 17.9706C22.4108 18.1809 22.3539 18.3785 22.2724 18.5619C22.1222 18.9018 21.8867 19.192 21.5523 19.4165C20.6273 20.037 19.3672 19.8639 18.1585 19.1785C17.9 19.0323 17.6439 18.8615 17.3933 18.671C16.7189 18.1564 16.0889 17.4907 15.5782 16.7287C13.9916 14.3626 13.7363 11.504 15.3924 10.3925C17.0494 9.28183 19.2755 10.8431 20.8621 13.2084C21.9554 14.8393 22.6558 16.6433 22.444 17.9706Z" fill="#29E568"/>
<path d="M22.4433 17.9707C22.4101 18.181 22.3532 18.3786 22.2718 18.562C20.7555 18.6988 19.395 18.9091 18.1578 19.1786C17.8993 19.0324 17.6432 18.8616 17.3926 18.6711L22.4433 17.9707Z" fill="#06895D"/>
<path d="M15.6855 31.1691C15.6467 31.1691 15.6081 31.1628 15.5712 31.1502C11.5023 29.7698 9.57996 27.0157 7.04516 21.7391C6.71697 21.056 6.42416 20.4307 6.16578 19.8791C5.02876 17.4515 4.34244 15.9862 2.68407 13.8093C2.61512 13.7187 2.59361 13.6006 2.62632 13.4916L4.90016 5.90417C4.95658 5.71595 5.15489 5.60892 5.34304 5.66554C5.53122 5.72193 5.6381 5.9202 5.58167 6.10843L3.35967 13.5229C4.98662 15.6842 5.71699 17.2435 6.8101 19.5774C7.06775 20.1275 7.35981 20.751 7.68648 21.431C10.1669 26.5944 11.9238 29.1348 15.7209 30.4494C20.6276 29.7743 26.8404 28.2895 31.119 27.0979L32.2961 21.2186C32.3347 21.0259 32.5219 20.901 32.7148 20.9396C32.9074 20.9781 33.0323 21.1656 32.9938 21.3582L31.7738 27.4516C31.7475 27.5828 31.6498 27.6882 31.521 27.7243C27.1908 28.9385 20.7695 30.4802 15.7335 31.1658C15.7176 31.168 15.7015 31.1691 15.6855 31.1691Z" fill="#080F66"/>
<path d="M16.7399 24.8389C16.4006 26.2213 16.1036 27.6158 15.8706 29.0251C15.8629 29.0715 15.819 29.103 15.7726 29.0953C15.7297 29.0883 15.6996 29.0503 15.7012 29.008C15.7552 27.5754 15.8753 26.1422 16.0396 24.7133C16.062 24.5177 16.2388 24.3774 16.4343 24.3998C16.646 24.4225 16.7918 24.6327 16.7399 24.8389Z" fill="#080F66"/>
<path d="M5.03188 7.21162C5.64468 7.93878 6.0962 8.74734 6.55136 9.5668C6.99289 10.3773 7.40488 11.1989 7.81054 12.0224C9.4278 15.3044 10.9286 18.6535 12.8234 21.7821C13.537 22.9406 14.299 24.0776 15.2477 25.0523C15.5615 25.3737 15.9015 25.6662 16.2676 25.9124C16.2688 25.913 16.1404 25.8862 16.1407 25.8864C18.8677 25.398 21.5939 24.9069 24.302 24.3417C27.0018 23.7733 29.6988 23.1409 32.3096 22.2537C32.4544 22.2035 32.6127 22.2807 32.6621 22.4258C32.7115 22.5704 32.6343 22.7276 32.4896 22.777C31.1622 23.2128 29.8165 23.5775 28.4642 23.9046C24.4146 24.8738 20.3017 25.5468 16.201 26.2362C16.1555 26.2448 16.1093 26.2348 16.0737 26.2099C13.4858 24.454 11.2738 19.9551 9.81101 17.1687C8.55789 14.7225 7.41123 12.226 6.08852 9.82212C5.64829 9.04532 5.19088 8.2449 4.61339 7.57365C4.3883 7.30768 4.76811 6.93078 5.03188 7.21162Z" fill="#080F66"/>
<path d="M4.62411 8.66196C7.155 12.5113 8.85825 16.7899 11.0841 20.801C11.9409 22.4007 12.8501 23.9905 14.077 25.3327C14.6841 26.0007 15.3625 26.6025 16.0953 27.1327L15.9614 27.1015C18.6695 26.6302 21.3763 26.1456 24.0659 25.5791C26.7505 25.0115 29.4288 24.3881 32.0526 23.5885C32.1988 23.5432 32.3542 23.6254 32.399 23.7717C32.445 23.9207 32.3575 24.0793 32.207 24.1199C30.8735 24.482 29.5346 24.8146 28.1894 25.1157C25.503 25.7291 22.7974 26.2452 20.0884 26.7422C18.734 26.9881 17.378 27.2233 16.021 27.4517C15.9723 27.4599 15.9243 27.4472 15.8871 27.4206C12.7805 25.274 11.1858 21.7811 9.45152 18.5588C8.16812 16.1281 7.01056 13.6447 5.63008 11.2734C5.17315 10.4862 4.69137 9.7147 4.16841 8.97593C3.97138 8.68494 4.38998 8.35054 4.62411 8.66196Z" fill="#080F66"/>
<path d="M4.16208 10.1909C6.77388 13.9935 8.34768 18.3747 10.5416 22.4023C11.2579 23.6917 12.0653 24.9404 13.0581 26.0345C13.889 26.9592 14.8579 27.7603 15.9242 28.3994L15.802 28.3773C17.1491 28.132 18.4949 27.8797 19.8384 27.6171C22.5252 27.0956 25.2017 26.5173 27.8581 25.8607C29.1841 25.5258 30.5063 25.177 31.8152 24.7865C32.1425 24.69 32.3409 25.1838 31.9734 25.3169C26.662 26.7147 21.2676 27.7575 15.8648 28.7272C15.8212 28.7353 15.7778 28.7263 15.7425 28.705C14.9458 28.2256 14.1932 27.6683 13.5193 27.0268C12.8429 26.3939 12.2348 25.679 11.6899 24.9314C9.53902 21.9215 8.22695 18.4451 6.50057 15.2078C5.85842 13.9936 5.22879 12.7827 4.48445 11.6329C4.23744 11.2523 3.97993 10.8789 3.71211 10.5129C3.51055 10.2275 3.9219 9.88353 4.16208 10.1909Z" fill="#080F66"/>
<path d="M3.67523 11.8174C5.48903 14.4764 6.93685 17.3307 8.31475 20.2254C8.74233 21.1421 9.1725 22.0947 9.64485 22.9886C10.6583 24.8597 11.8404 26.7123 13.4617 28.1099L13.7183 28.3254L13.9872 28.5237C14.1399 28.645 14.3786 28.7853 14.5425 28.8918C14.9279 29.1093 15.3297 29.296 15.7508 29.4178L15.6845 29.4123C19.7213 28.92 23.6741 27.8711 27.6186 26.8999C28.9345 26.5626 30.2518 26.229 31.5673 25.8863C31.7152 25.8478 31.8663 25.9364 31.9048 26.0844C31.9445 26.2352 31.8502 26.3901 31.6979 26.424C27.7197 27.3245 23.7638 28.3219 19.7624 29.1222C18.4052 29.3756 17.0366 29.6497 15.6555 29.7604C14.9782 29.5614 14.3429 29.2308 13.7762 28.8171C12.8368 28.1412 12.0358 27.2746 11.3367 26.3652C9.9357 24.5479 8.90981 22.4712 7.94078 20.4035C7.3484 19.1754 6.73042 17.9584 6.07941 16.761C5.20641 15.1745 4.28638 13.6031 3.22461 12.1386C3.02016 11.85 3.43771 11.5082 3.67523 11.8174Z" fill="#080F66"/>
<path d="M23.6804 11.5068C24.8142 13.5905 26.2971 15.8739 27.406 17.2837C23.3569 17.8205 18.199 18.4443 12.4793 19.1122C11.3178 20.6828 10.7836 24.4207 9.95386 26.3013C8.909 24.7375 7.70468 22.4261 6.35938 19.4537C6.87627 17.8677 7.79004 15.5884 9.2075 12.4291C14.1391 11.98 20.4256 12.0339 23.6804 11.5068Z" fill="white"/>
<path d="M9.57559 12.9609C10.389 15.0628 11.279 16.9091 12.2726 18.4093C11.1464 19.8508 10.4652 22.3619 9.85783 25.0502C8.827 23.1768 7.84772 21.2673 6.95703 19.2957C7.86567 17.0645 8.79559 14.7621 9.57559 12.9609Z" fill="#B3EFFF"/>
<path d="M9.95214 26.6565C9.83405 26.6565 9.72279 26.5976 9.65641 26.4983C8.62708 24.9578 7.40818 22.6368 6.0336 19.5998C5.997 19.5189 5.99195 19.4273 6.01949 19.3429C6.56586 17.6664 7.50197 15.357 8.88126 12.2828C8.93386 12.1656 9.04561 12.0858 9.1736 12.0742C11.3618 11.8749 13.7933 11.7752 16.1447 11.6788C19.0666 11.5589 21.8264 11.4458 23.6218 11.155C23.771 11.1307 23.919 11.2035 23.9911 11.3361C25.0811 13.3391 26.5651 15.6406 27.684 17.0632C27.763 17.1636 27.782 17.2987 27.7339 17.4171C27.6857 17.5355 27.5778 17.6189 27.4511 17.6357C23.836 18.115 19.0022 18.7074 12.677 19.4464C12.0623 20.3657 11.6249 21.9727 11.2014 23.5289C10.9012 24.6318 10.6177 25.6735 10.2777 26.4443C10.2253 26.5631 10.1124 26.6439 9.98304 26.6551C9.9727 26.656 9.96241 26.6565 9.95214 26.6565ZM6.73897 19.4325C7.91017 22.0113 8.9622 24.0545 9.87368 25.5213C10.0939 24.8888 10.3001 24.1314 10.5149 23.342C10.9753 21.6503 11.4514 19.9009 12.1916 18.9C12.2501 18.8209 12.3387 18.7696 12.4364 18.7582C18.485 18.0519 23.1771 17.4791 26.7482 17.0107C25.7015 15.6071 24.4732 13.6834 23.4865 11.8957C21.6521 12.165 18.9875 12.2742 16.1739 12.3896C13.9053 12.4827 11.5622 12.5788 9.44523 12.7642C8.17567 15.603 7.26595 17.8446 6.73897 19.4325Z" fill="#080F66"/>
<path d="M9.8159 13.4506C10.2853 14.4542 10.8097 15.6124 11.2763 16.6154L11.525 17.1401C11.6067 17.3156 11.6905 17.49 11.775 17.664C11.7867 17.688 11.7767 17.717 11.7526 17.7286C11.7282 17.7404 11.7032 17.7295 11.688 17.7096C11.41 17.4163 11.1841 17.0926 10.9758 16.7614C10.6141 16.1833 10.3071 15.5716 10.064 14.9357C9.8844 14.4703 9.73504 14.0019 9.66122 13.497C9.64706 13.4066 9.77788 13.3661 9.8159 13.4506Z" fill="#080F66"/>
<path d="M23.3419 12.3672C23.3419 12.3672 25.0225 15.2596 26.2035 16.7296L23.1695 17.079C24.612 16.3891 23.7854 14.0938 22.7461 12.4495L23.3419 12.3672Z" fill="#B3EFFF"/>
<path d="M10.1875 13.1341C11.0438 15.4171 11.9423 17.0767 12.8688 18.3241C11.732 15.7683 11.8422 12.7548 10.1875 13.1341Z" fill="#B3EFFF"/>
</g>
<defs>
<clipPath id="clip0_3200_8740">
<rect width="30" height="30" fill="white" transform="translate(3 3)"/>
</clipPath>
</defs>
</svg>
