<svg width="19" height="19" viewBox="0 0 19 19" fill="none" xmlns="http://www.w3.org/2000/svg">
<path fill-rule="evenodd" clip-rule="evenodd" d="M3.14893 3.3457C2.57485 3.3457 2.02429 3.57375 1.61836 3.97969C1.21243 4.38562 0.984375 4.93618 0.984375 5.51025V13.3813C0.984375 13.9554 1.21243 14.506 1.61836 14.9119C2.02429 15.3178 2.57485 15.5459 3.14893 15.5459H15.7427C16.3168 15.5459 16.8673 15.3178 17.2732 14.9119C17.6792 14.506 17.9072 13.9554 17.9072 13.3813V5.51025C17.9072 4.93618 17.6792 4.38562 17.2732 3.97969C16.8673 3.57375 16.3168 3.3457 15.7427 3.3457H3.14893ZM15.0083 9.84014C15.0621 9.7829 15.104 9.71549 15.1314 9.64186C15.1588 9.56824 15.1712 9.48988 15.168 9.41139C15.1647 9.33289 15.1458 9.25583 15.1124 9.18473C15.079 9.11362 15.0317 9.04991 14.9734 8.99731C14.915 8.94471 14.8467 8.90429 14.7726 8.87842C14.6984 8.85255 14.6198 8.84174 14.5414 8.84664C14.463 8.85154 14.3863 8.87204 14.3159 8.90694C14.2455 8.94184 14.1828 8.99044 14.1315 9.04988L14.1236 9.05854C14.0698 9.11579 14.0279 9.1832 14.0005 9.25682C13.9731 9.33045 13.9607 9.4088 13.9639 9.4873C13.9672 9.5658 13.986 9.64286 14.0195 9.71396C14.0529 9.78506 14.1002 9.84878 14.1585 9.90138C14.2169 9.95397 14.2851 9.99439 14.3593 10.0203C14.4335 10.0461 14.5121 10.0569 14.5905 10.052C14.6689 10.0471 14.7456 10.0266 14.816 9.99175C14.8864 9.95685 14.9491 9.90825 15.0004 9.8488L15.0083 9.84014ZM4.73259 9.00581C4.79026 9.05772 4.83714 9.12049 4.87053 9.19053C4.90393 9.26057 4.92319 9.33651 4.92721 9.414C4.93123 9.49149 4.91993 9.56901 4.89397 9.64214C4.868 9.71526 4.82787 9.78254 4.77588 9.84014L4.76801 9.8488C4.71665 9.90825 4.65393 9.95685 4.58355 9.99175C4.51316 10.0266 4.43651 10.0471 4.3581 10.052C4.27969 10.0569 4.20109 10.0461 4.12691 10.0203C4.05272 9.99439 3.98445 9.95397 3.92609 9.90138C3.86773 9.84878 3.82046 9.78506 3.78704 9.71396C3.75362 9.64286 3.73473 9.5658 3.73148 9.4873C3.72823 9.4088 3.74068 9.33045 3.7681 9.25682C3.79552 9.1832 3.83736 9.11579 3.89117 9.05854L3.89904 9.04988C4.00385 8.93364 4.15054 8.86378 4.30685 8.85566C4.46316 8.84754 4.6163 8.90183 4.73259 9.00659M9.4458 6.49414C8.66297 6.49414 7.91221 6.80512 7.35866 7.35866C6.80512 7.91221 6.49414 8.66297 6.49414 9.4458C6.49414 10.2286 6.80512 10.9794 7.35866 11.5329C7.91221 12.0865 8.66297 12.3975 9.4458 12.3975C10.2286 12.3975 10.9794 12.0865 11.5329 11.5329C12.0865 10.9794 12.3975 10.2286 12.3975 9.4458C12.3975 8.66297 12.0865 7.91221 11.5329 7.35866C10.9794 6.80512 10.2286 6.49414 9.4458 6.49414Z" fill="currentColor"/>
</svg>
