<svg viewBox="0 0 36 36" fill="none" xmlns="http://www.w3.org/2000/svg">
<path d="M30.863 18.7352H30.128L32.333 4.03516H20.573L21.437 12.6767H17.9L15.428 14.3252L9.54797 23.8802L3.66797 26.0852L13.958 34.9052L17.633 33.4352H29.393L31.598 31.2302L30.863 29.0252L32.333 26.0852L30.863 23.1452L32.333 20.9402L30.863 18.7352Z" fill="#5500FF"/>
<path d="M18.3691 15.7957L16.1641 1.0957H27.1891L26.4541 4.0357H20.5741L21.7501 15.7957H18.3691Z" fill="#6B50FF"/>
<path d="M21.6758 15.0597L22.0433 18.7347H30.1283L30.6788 15.0597H21.6758ZM26.4518 9.17969L24.2468 11.3847L26.4518 13.5897L28.6568 11.3847L26.4518 9.17969Z" fill="#6B50FF"/>
<path d="M18.368 15.7957L16.163 1.0957H27.188M13.958 34.9057L17.633 33.4357H29.393L31.598 31.2307L30.863 29.0257L32.333 26.0857L30.863 23.1457L32.333 20.9407L30.863 18.7357H18.368M3.66797 26.0857L9.54797 23.8807L15.428 14.3257L17.9 12.6772" stroke="#B1B0FF" stroke-width="1.5" stroke-linecap="round" stroke-linejoin="round"/>
<path d="M22.0423 18.7352L20.5723 4.03516H32.3323L30.1273 18.7352" stroke="#B1B0FF" stroke-width="1.5" stroke-linecap="round" stroke-linejoin="round"/>
<path d="M26.4511 9.17969L24.2461 11.3847L26.4511 13.5897L28.6561 11.3847L26.4511 9.17969Z" stroke="#B1B0FF" stroke-width="1.5" stroke-linecap="round" stroke-linejoin="round"/>
</svg>
