<svg viewBox="0 0 21 24" fill="none" xmlns="http://www.w3.org/2000/svg">
<path d="M18.63 12.26H18.14L19.61 2.45996H11.77L12.346 8.22096H9.988L8.34 9.31996L4.42 15.69L0.5 17.16L7.36 23.04L9.81 22.06H17.65L19.12 20.59L18.63 19.12L19.61 17.16L18.63 15.2L19.61 13.73L18.63 12.26Z" fill="#E7E7FF"/>
<path d="M10.3001 10.3L8.83008 0.5H16.1801L15.6901 2.46H11.7701L12.5541 10.3H10.3001Z" fill="#8781FF"/>
<path d="M12.5059 9.80989L12.7509 12.2599H18.1409L18.5079 9.80989H12.5059ZM15.6899 5.88989L14.2199 7.35989L15.6899 8.82989L17.1599 7.35989L15.6899 5.88989Z" fill="#8781FF"/>
<path d="M10.3 10.3L8.83 0.5H16.18M7.36 23.04L9.81 22.06H17.65L19.12 20.59L18.63 19.12L19.61 17.16L18.63 15.2L19.61 13.73L18.63 12.26H10.3M0.5 17.16L4.42 15.69L8.34 9.32L9.988 8.221" stroke="#B1B0FF" stroke-linecap="round" stroke-linejoin="round"/>
<path d="M12.7495 12.26L11.7695 2.45996H19.6095L18.1395 12.26" stroke="#B1B0FF" stroke-linecap="round" stroke-linejoin="round"/>
<path d="M15.6888 5.88989L14.2188 7.35989L15.6888 8.82989L17.1588 7.35989L15.6888 5.88989Z" stroke="#B1B0FF" stroke-linecap="round" stroke-linejoin="round"/>
</svg>
