<svg width="20" height="20" viewBox="0 0 20 20" fill="none" xmlns="http://www.w3.org/2000/svg">
<path d="M1.66797 9.99964C1.66839 8.17264 2.26921 6.39641 3.37796 4.9443C4.48671 3.4922 6.04194 2.44471 7.8043 1.96304C9.56667 1.48137 11.4385 1.59222 13.1317 2.27852C14.8249 2.96483 16.2456 4.18855 17.1752 5.76137C18.1049 7.33418 18.4918 9.16891 18.2766 10.9832C18.0614 12.7975 17.2559 14.4907 15.9841 15.8024C14.7123 17.1141 13.0447 17.9715 11.238 18.2426C9.43121 18.5137 7.5854 18.1836 5.98464 17.303L2.74464 18.2896C2.60012 18.3337 2.44636 18.3376 2.29979 18.301C2.15323 18.2643 2.01937 18.1886 1.91255 18.0817C1.80573 17.9749 1.72995 17.8411 1.69333 17.6945C1.65671 17.5479 1.66061 17.3942 1.70464 17.2496L2.6913 14.0046C2.01924 12.7768 1.66731 11.3994 1.66797 9.99964ZM6.66797 9.16631C6.66797 9.38732 6.75577 9.59928 6.91205 9.75556C7.06833 9.91184 7.28029 9.99964 7.5013 9.99964H12.5013C12.7223 9.99964 12.9343 9.91184 13.0906 9.75556C13.2468 9.59928 13.3346 9.38732 13.3346 9.16631C13.3346 8.94529 13.2468 8.73333 13.0906 8.57705C12.9343 8.42077 12.7223 8.33298 12.5013 8.33298L7.5013 8.33298C7.28029 8.33298 7.06833 8.42077 6.91205 8.57705C6.75577 8.73333 6.66797 8.94529 6.66797 9.16631ZM7.5013 11.6663C7.28029 11.6663 7.06833 11.7541 6.91205 11.9104C6.75577 12.0667 6.66797 12.2786 6.66797 12.4996C6.66797 12.7207 6.75577 12.9326 6.91205 13.0889C7.06833 13.2452 7.28029 13.333 7.5013 13.333H10.8346C11.0556 13.333 11.2676 13.2452 11.4239 13.0889C11.5802 12.9326 11.668 12.7207 11.668 12.4996C11.668 12.2786 11.5802 12.0667 11.4239 11.9104C11.2676 11.7541 11.0556 11.6663 10.8346 11.6663H7.5013Z" fill="currentColor"/>
</svg>
