<svg xmlns="http://www.w3.org/2000/svg" width="12" height="9" viewBox="0 0 12 9" fill="none">
  <path fill-rule="evenodd" clip-rule="evenodd" d="M10.7841 0.189965C11.0953 0.464972 11.1244 0.940715 10.8494 1.25386L5.07822 7.77776C5.01157 7.85312 4.9305 7.91435 4.83978 7.95785C4.74906 8.00134 4.65055 8.02621 4.55006 8.03098C4.44957 8.03575 4.34914 8.02033 4.25471 7.98563C4.16028 7.95093 4.07376 7.89765 4.00027 7.82895L0.236487 4.31608C0.0916941 4.17962 0.00681093 3.9914 0.000392268 3.79254C-0.00602639 3.59369 0.0665416 3.40038 0.202234 3.25487C0.337926 3.10936 0.525705 3.02349 0.724524 3.01603C0.923343 3.00857 1.11703 3.08012 1.26325 3.21505L4.46498 6.19596L9.72424 0.2542C9.78981 0.180022 9.86937 0.119508 9.95837 0.0761232C10.0474 0.0327384 10.144 0.00733517 10.2429 0.00136835C10.3417 -0.00459846 10.4407 0.00898848 10.5343 0.0413507C10.6279 0.073713 10.7141 0.124215 10.7881 0.189965H10.7841Z" fill="white"/>
</svg>