<svg width="78" height="78" viewBox="0 0 78 78" fill="none" xmlns="http://www.w3.org/2000/svg">
<path d="M16.25 65V58.5H61.75V65H16.25ZM16.25 53.625L12.1063 27.5438C11.9979 27.5438 11.8755 27.5578 11.739 27.586C11.6025 27.6142 11.4812 27.6272 11.375 27.625C10.0208 27.625 8.87034 27.1505 7.92351 26.2015C6.97667 25.2525 6.50217 24.102 6.50001 22.75C6.49784 21.398 6.97234 20.2475 7.92351 19.2985C8.87467 18.3495 10.0252 17.875 11.375 17.875C12.7248 17.875 13.8764 18.3495 14.8298 19.2985C15.7831 20.2475 16.2565 21.398 16.25 22.75C16.25 23.1292 16.2088 23.4813 16.1265 23.8063C16.0442 24.1313 15.9499 24.4292 15.8438 24.7L26 29.25L36.1563 15.3563C35.5604 14.9229 35.0729 14.3542 34.6938 13.65C34.3146 12.9458 34.125 12.1875 34.125 11.375C34.125 10.0208 34.5995 8.86926 35.5485 7.92026C36.4975 6.97126 37.648 6.49784 39 6.50001C40.352 6.50217 41.5036 6.97667 42.4548 7.92351C43.4059 8.87034 43.8793 10.0208 43.875 11.375C43.875 12.1875 43.6854 12.9458 43.3063 13.65C42.9271 14.3542 42.4396 14.9229 41.8438 15.3563L52 29.25L62.1563 24.7C62.0479 24.4292 61.9526 24.1313 61.8703 23.8063C61.7879 23.4813 61.7478 23.1292 61.75 22.75C61.75 21.3958 62.2245 20.2443 63.1735 19.2953C64.1225 18.3463 65.273 17.8728 66.625 17.875C67.977 17.8772 69.1286 18.3517 70.0798 19.2985C71.0309 20.2453 71.5043 21.3958 71.5 22.75C71.4957 24.1042 71.0223 25.2558 70.0798 26.2048C69.1373 27.1538 67.9857 27.6272 66.625 27.625C66.5167 27.625 66.3953 27.612 66.261 27.586C66.1267 27.56 66.0043 27.5459 65.8938 27.5438L61.75 53.625H16.25ZM21.775 47.125H56.225L58.3375 33.5563L49.8063 37.2938L39 22.425L28.1938 37.2938L19.6625 33.5563L21.775 47.125Z" fill="#FDB022"/>
</svg>
