<svg width="20" height="20" viewBox="0 0 20 20" fill="none" xmlns="http://www.w3.org/2000/svg">
<path d="M9.99935 3.33329L14.1493 3.33329C14.4518 3.33339 14.7485 3.41578 15.0077 3.57163L17.3852 4.99996C17.6729 5.17274 17.9109 5.41705 18.0762 5.70911C18.2415 6.00117 18.3283 6.33104 18.3283 6.66663C18.3283 7.00221 18.2415 7.33208 18.0762 7.62414C17.9109 7.9162 17.6729 8.16051 17.3852 8.33329L15.0077 9.76163C14.7485 9.91748 14.4518 9.99986 14.1493 9.99996H9.99935V17.5C9.99935 17.721 9.91155 17.9329 9.75527 18.0892C9.59899 18.2455 9.38703 18.3333 9.16602 18.3333C8.945 18.3333 8.73304 18.2455 8.57676 18.0892C8.42048 17.9329 8.33268 17.721 8.33268 17.5L8.33268 9.99996H3.33268C2.89065 9.99996 2.46673 9.82436 2.15417 9.5118C1.84161 9.19924 1.66602 8.77532 1.66602 8.33329L1.66602 4.99996C1.66602 4.55793 1.84161 4.13401 2.15417 3.82145C2.46673 3.50889 2.89065 3.33329 3.33268 3.33329L8.33268 3.33329V2.49996C8.33268 2.27895 8.42048 2.06698 8.57676 1.9107C8.73304 1.75442 8.945 1.66663 9.16602 1.66663C9.38703 1.66663 9.59899 1.75442 9.75527 1.9107C9.91155 2.06698 9.99935 2.27895 9.99935 2.49996V3.33329Z" fill="currentColor"/>
</svg>
