<svg xmlns="http://www.w3.org/2000/svg" width="24" height="24" viewBox="0 0 24 24" fill="none">
  <path d="M18.925 3.13718C18.6438 2.85583 18.3099 2.63267 17.9424 2.48044C17.575 2.32821 17.1811 2.24991 16.7833 2.25C16.3855 2.25009 15.9917 2.32858 15.6243 2.48098C15.2568 2.63338 14.9231 2.8567 14.642 3.13818L5.135 12.6582C4.56853 13.2259 4.25028 13.9951 4.25 14.7972V18.0002C4.25 18.4142 4.586 18.7502 5 18.7502H8.223C9.026 18.7502 9.796 18.4302 10.363 17.8632L19.863 8.35718C20.4297 7.78915 20.7479 7.01954 20.7479 6.21718C20.7479 5.41481 20.4297 4.6452 19.863 4.07718L18.925 3.13718ZM4 20.2502C3.80109 20.2502 3.61032 20.3292 3.46967 20.4698C3.32902 20.6105 3.25 20.8013 3.25 21.0002C3.25 21.1991 3.32902 21.3899 3.46967 21.5305C3.61032 21.6712 3.80109 21.7502 4 21.7502H20C20.1989 21.7502 20.3897 21.6712 20.5303 21.5305C20.671 21.3899 20.75 21.1991 20.75 21.0002C20.75 20.8013 20.671 20.6105 20.5303 20.4698C20.3897 20.3292 20.1989 20.2502 20 20.2502H4Z" fill="currentColor"/>
</svg>