<svg xmlns="http://www.w3.org/2000/svg" width="57" height="75" viewBox="0 0 57 75" fill="none">
  <path d="M0 1.5625H56.25M0 73.4375H56.25M7.8125 73.4375V54.6875L16.7375 49.3313C18.7807 48.1055 20.4717 46.3715 21.6457 44.2982C22.8198 42.2248 23.4368 39.8827 23.4368 37.5C23.4368 35.1173 22.8198 32.7752 21.6457 30.7018C20.4717 28.6285 18.7807 26.8945 16.7375 25.6687L7.8125 20.3125V1.5625M48.4375 1.5625V20.3125L39.5125 25.6687C37.47 26.8951 35.7798 28.6293 34.6063 30.7026C33.4329 32.7759 32.8161 35.1177 32.8161 37.5C32.8161 39.8823 33.4329 42.2241 34.6063 44.2974C35.7798 46.3707 37.47 48.1049 39.5125 49.3313L48.4375 54.6875V73.4375" stroke="#DEAF53" stroke-width="4"/>
</svg>