<svg width="20" height="20" viewBox="0 0 20 20" fill="none" xmlns="http://www.w3.org/2000/svg">
<path d="M1.25 3.33325V4.58325C1.25 8.04159 3.09167 11.0666 5.83333 12.7499V16.6666H18.3333V14.9999C18.3333 12.7833 13.8917 11.6666 11.6667 11.6666H11.4583C7.5 11.6666 4.16667 8.33325 4.16667 4.58325V3.33325M11.6667 3.33325C10.7826 3.33325 9.93477 3.68444 9.30964 4.30956C8.68452 4.93468 8.33333 5.78253 8.33333 6.66659C8.33333 7.55064 8.68452 8.39849 9.30964 9.02361C9.93477 9.64873 10.7826 9.99992 11.6667 9.99992C12.5507 9.99992 13.3986 9.64873 14.0237 9.02361C14.6488 8.39849 15 7.55064 15 6.66659C15 5.78253 14.6488 4.93468 14.0237 4.30956C13.3986 3.68444 12.5507 3.33325 11.6667 3.33325Z" fill="currentColor"/>
</svg>
