<svg xmlns="http://www.w3.org/2000/svg" viewBox="0 0 20 20" fill="none">
  <path d="M17.7225 16.6625H17.5475V9.99588C17.5475 9.21791 17.2384 8.47181 16.6883 7.9217C16.1382 7.37159 15.3921 7.06254 14.6141 7.06254H13.6975V4.98754C13.6975 4.60163 13.6213 4.21951 13.4734 3.86308C13.3254 3.50665 13.1086 3.18291 12.8354 2.91041C12.5621 2.63792 12.2377 2.42202 11.8809 2.2751C11.524 2.12818 11.1417 2.05311 10.7558 2.05421H4.98079C4.59487 2.05311 4.21254 2.12818 3.85569 2.2751C3.49884 2.42202 3.17449 2.63792 2.90122 2.91041C2.62795 3.18291 2.41114 3.50665 2.2632 3.86308C2.11527 4.21951 2.03912 4.60163 2.03912 4.98754V16.7542C1.92733 16.8006 1.83193 16.8794 1.76512 16.9803C1.69832 17.0813 1.66315 17.1998 1.66412 17.3209C1.663 17.4033 1.6784 17.485 1.70941 17.5614C1.74042 17.6377 1.78642 17.7071 1.84468 17.7653C1.90294 17.8236 1.97229 17.8696 2.04862 17.9006C2.12496 17.9316 2.20673 17.947 2.28912 17.9459H17.7058C17.8715 17.9459 18.0305 17.88 18.1477 17.7628C18.2649 17.6456 18.3308 17.4866 18.3308 17.3209C18.3308 17.1551 18.2649 16.9961 18.1477 16.8789C18.0305 16.7617 17.8715 16.6959 17.7058 16.6959L17.7225 16.6625ZM4.94745 8.81254C4.94745 8.64678 5.0133 8.48781 5.13051 8.3706C5.24772 8.25339 5.40669 8.18754 5.57245 8.18754H10.1975C10.3632 8.18754 10.5222 8.25339 10.6394 8.3706C10.7566 8.48781 10.8225 8.64678 10.8225 8.81254C10.8225 8.9783 10.7566 9.13728 10.6394 9.25449C10.5222 9.3717 10.3632 9.43754 10.1975 9.43754H5.57245C5.40736 9.43539 5.24964 9.36884 5.1329 9.2521C5.01615 9.13535 4.94961 8.97763 4.94745 8.81254ZM5.57245 5.10421H10.1975C10.3632 5.10421 10.5222 5.17006 10.6394 5.28727C10.7566 5.40448 10.8225 5.56345 10.8225 5.72921C10.8225 5.89497 10.7566 6.05394 10.6394 6.17115C10.5222 6.28836 10.3632 6.35421 10.1975 6.35421H5.57245C5.40669 6.35421 5.24772 6.28836 5.13051 6.17115C5.0133 6.05394 4.94745 5.89497 4.94745 5.72921C4.94745 5.56345 5.0133 5.40448 5.13051 5.28727C5.24772 5.17006 5.40669 5.10421 5.57245 5.10421ZM6.58912 16.6625V13.0459C6.58911 12.9762 6.60296 12.9073 6.62986 12.843C6.65677 12.7788 6.69619 12.7205 6.74582 12.6717C6.79546 12.6228 6.85432 12.5843 6.91898 12.5584C6.98365 12.5325 7.05281 12.5198 7.12245 12.5209H8.66412C8.73376 12.5198 8.80293 12.5325 8.86759 12.5584C8.93225 12.5843 8.99111 12.6228 9.04075 12.6717C9.09039 12.7205 9.1298 12.7788 9.15671 12.843C9.18361 12.9073 9.19746 12.9762 9.19745 13.0459V16.6625H6.58912ZM16.3141 16.6625H13.7141V8.27921H14.6308C15.0728 8.27921 15.4967 8.45481 15.8093 8.76737C16.1219 9.07993 16.2975 9.50385 16.2975 9.94588L16.3141 16.6625Z" fill="white"/>
</svg>