<svg xmlns="http://www.w3.org/2000/svg" width="24" height="24" viewBox="0 0 24 24" fill="none">
    <path d="M20.1429 12.8742V11.5171C20.1429 11.1572 19.9923 10.812 19.7244 10.5574C19.4565 10.3029 19.0932 10.1599 18.7143 10.1599H4.42857C4.04969 10.1599 3.68633 10.3029 3.41842 10.5574C3.15051 10.812 3 11.1572 3 11.5171V19.6599C3 20.0199 3.15051 20.3651 3.41842 20.6196C3.68633 20.8741 4.04969 21.0171 4.42857 21.0171H18.7143C19.0932 21.0171 19.4565 20.8741 19.7244 20.6196C19.9923 20.3651 20.1429 20.0199 20.1429 19.6599V18.3028M20.1429 12.8742H14.4286C13.6708 12.8742 12.9441 13.1602 12.4083 13.6692C11.8724 14.1783 11.5714 14.8686 11.5714 15.5885C11.5714 16.3084 11.8724 16.9988 12.4083 17.5078C12.9441 18.0168 13.6708 18.3028 14.4286 18.3028H20.1429M20.1429 12.8742C20.9006 12.8742 21.6273 13.1602 22.1632 13.6692C22.699 14.1783 23 14.8686 23 15.5885C23 16.3084 22.699 16.9988 22.1632 17.5078C21.6273 18.0168 20.9006 18.3028 20.1429 18.3028M7.28571 10.1599V6.08852C7.28571 5.00871 7.73724 3.97312 8.54097 3.20958C9.3447 2.44604 10.4348 2.01709 11.5714 2.01709C12.7081 2.01709 13.7982 2.44604 14.6019 3.20958C15.4056 3.97312 15.8571 5.00871 15.8571 6.08852V10.1599M19.4286 15.5885H20.8571M16.5714 15.5885H18M13.7143 15.5885H15.1429" stroke="currentColor" stroke-width="1.6"/>
  </svg>