<svg xmlns="http://www.w3.org/2000/svg" width="149" height="56" viewBox="0 0 149 56" fill="none">
    <path d="M12.6192 51.5675C12.5763 51.5482 12.5402 51.5201 12.5044 51.3848C12.4987 36.2769 12.4995 21.2674 12.5014 6.25793C12.5015 5.4694 12.5106 4.68089 12.5156 3.89236C12.5156 3.89236 12.5056 3.88952 12.5717 3.88696C20.4688 3.89163 28.2998 3.89888 36.1308 3.90613C37.444 4.1399 38.781 4.28392 40.0658 4.62469C43.5748 5.55538 46.4598 7.39122 48.2062 10.6927C51.499 16.9177 48.7445 24.2924 42.2023 26.8269C42.004 26.9037 41.8036 26.9751 41.5713 27.0612C42.4043 27.3785 43.2333 27.6124 43.9868 27.9948C48.0646 30.0647 50.2518 33.4316 50.5244 37.9703C50.7235 41.2844 49.8861 44.3241 47.6105 46.8547C45.7964 48.8722 43.5194 50.1392 40.9161 50.7942C39.6709 51.1075 38.3795 51.2374 36.9923 51.4705C33.6942 51.5086 30.5128 51.5336 27.3314 51.5427C22.4273 51.5567 17.5232 51.5598 12.6192 51.5675ZM36.1864 14.5629C36.1378 14.534 36.0893 14.5051 36.0464 14.4965C36.0464 14.4965 36.0667 14.4907 36.0221 14.4075C35.8366 14.2928 35.6512 14.1781 35.4675 14.0735C35.4675 14.0735 35.4777 14.0718 35.433 13.9956C35.3515 13.9684 35.2699 13.9412 35.1867 13.9245C35.1867 13.9245 35.1952 13.9181 35.1269 13.8464C34.9092 13.7745 34.6915 13.7026 34.4627 13.6411C34.4627 13.6411 34.4741 13.6307 34.3955 13.5565C32.8541 13.4336 31.3145 13.2539 29.7707 13.2024C27.9127 13.1405 26.051 13.1878 24.1713 13.1878C24.1713 16.539 24.1713 19.8239 24.1713 23.104C27.0914 23.104 29.9615 23.1249 32.8308 23.0857C33.3827 23.0782 33.9313 22.8347 34.469 22.6943C34.469 22.6943 34.4634 22.7068 34.5653 22.6999C34.7736 22.6036 34.982 22.5073 35.2911 22.4041C35.7826 21.9822 36.2742 21.5604 36.8432 21.0859C36.9093 20.9473 36.9754 20.8087 37.0435 20.6733C37.0435 20.6733 37.0399 20.6743 37.1037 20.6174C37.1327 20.54 37.1616 20.4626 37.1839 20.3878C37.1839 20.3878 37.1877 20.3939 37.2562 20.3154C37.3553 19.8702 37.4544 19.425 37.5903 18.8807C37.5882 18.8107 37.5862 18.7406 37.614 18.5403C37.6563 17.4588 37.5646 16.4081 36.9122 15.5C36.9122 15.5 36.9278 15.5035 36.9146 15.4156C36.8622 15.3481 36.8099 15.2806 36.7556 15.2233C36.7556 15.2233 36.7657 15.2253 36.7461 15.1472C36.702 15.1191 36.6579 15.0911 36.6133 15.0795C36.6133 15.0795 36.6298 15.08 36.6041 15.0016C36.5595 14.9721 36.5149 14.9425 36.4705 14.9355C36.4705 14.9355 36.493 14.9354 36.4682 14.8535C36.4215 14.8235 36.3748 14.7935 36.3279 14.7906C36.3279 14.7906 36.355 14.7908 36.3271 14.7085C36.2794 14.6785 36.2316 14.6484 36.1859 14.6474C36.1859 14.6474 36.2148 14.6454 36.1864 14.5629ZM33.4591 42.1348C33.6261 42.1227 33.7935 42.1143 33.9601 42.098C37.6568 41.7354 39.6032 38.8039 38.5072 35.2503C37.8926 33.2574 35.905 31.7849 33.5868 31.7331C30.574 31.6658 27.5593 31.68 24.5453 31.664C24.4132 31.6633 24.2808 31.7112 24.1725 31.7318C24.1725 35.2339 24.1725 38.6902 24.1725 42.1482C27.2589 42.1482 30.2931 42.1482 33.4591 42.1348Z" fill="#FFFEFF"/>
    <path d="M103.647 52.0324C103.647 52.0324 103.594 52.0526 103.561 52.0327C102.911 51.9376 102.294 51.8623 101.676 51.787C99.142 51.2224 96.7192 50.3817 94.5476 48.9151C89.9298 45.7964 87.3436 41.4122 86.6099 35.9411C86.071 31.9221 86.3608 27.9625 88.0228 24.1991C90.4806 18.6338 94.7245 15.164 100.617 13.7762C106.699 12.3438 112.52 12.9987 117.801 16.5171C122.23 19.4674 124.639 23.7637 125.484 28.9555C126.065 32.5255 125.892 36.0769 124.676 39.5015C122.289 46.2268 117.442 50.16 110.546 51.6752C109.825 51.8336 109.082 51.8929 108.229 52.0077C106.622 52.0223 105.135 52.0273 103.647 52.0324ZM107.448 23.2626C102.923 22.5565 99.4784 25.2583 98.5527 29.2606C98.0559 31.4084 98.0582 33.5749 98.5032 35.7339C99.2381 39.299 101.924 41.7979 105.274 42.0528C108.878 42.327 112.026 40.2826 113.294 36.8181C113.99 34.9157 114.053 32.9434 113.871 30.9486C113.523 27.1391 111.257 24.0477 107.448 23.2626Z" fill="#FEFEFF"/>
    <path d="M58.4219 13.7567C58.4219 13.7567 58.4431 13.7123 58.5122 13.6796C62.4053 13.6497 66.2294 13.6526 70.0535 13.6554C70.0535 15.6731 70.0535 17.6907 70.0535 19.9336C73.023 15.7038 76.8282 13.3718 81.9105 13.3374C81.973 17.4056 81.9812 21.4005 81.9894 25.3953C81.9504 25.4331 81.9113 25.4709 81.7783 25.5243C80.4012 25.5451 79.1093 25.4594 77.8374 25.5818C76.6243 25.6986 75.4321 26.0322 74.2307 26.2704C74.2307 26.2704 74.2371 26.2769 74.1856 26.274C73.9671 26.3592 73.8001 26.4472 73.6332 26.5351C73.6332 26.5351 73.6604 26.5603 73.6018 26.5542C73.3876 26.6482 73.232 26.7484 73.0764 26.8486C73.0764 26.8486 73.086 26.8511 73.0412 26.8526C72.8789 26.9474 72.7615 27.0406 72.6441 27.1338C72.6441 27.1338 72.6566 27.1373 72.6167 27.1404C72.5461 27.1891 72.5154 27.2348 72.4847 27.2804C72.4847 27.2804 72.5112 27.2864 72.471 27.282C72.3954 27.3226 72.3601 27.3677 72.3248 27.4128C72.3248 27.4128 72.347 27.409 72.3007 27.416C72.043 27.6576 71.8315 27.8921 71.62 28.1267C71.62 28.1267 71.6435 28.1337 71.6072 28.1377C71.547 28.1915 71.5232 28.2413 71.4995 28.2911C71.4995 28.2911 71.5105 28.2882 71.4681 28.3079C71.3068 28.5537 71.1879 28.7799 71.0691 29.006C71.0691 29.006 71.0789 29.0034 71.0393 29.0296C70.9202 29.2658 70.8406 29.4757 70.7609 29.6857C70.7609 29.6857 70.7549 29.6891 70.7209 29.7291C70.6223 30.0288 70.5578 30.2883 70.4931 30.5479C70.4931 30.5479 70.4632 30.5635 70.4372 30.6197C70.344 31.0266 70.2333 31.3754 70.2172 31.7285C70.1507 33.179 70.0742 34.6308 70.0715 36.0822C70.062 41.1896 70.0814 46.297 70.0898 51.4044C70.0898 51.4044 70.0656 51.4654 69.9953 51.5032C66.0986 51.5349 62.2723 51.5288 58.446 51.5227C58.446 51.5227 58.4428 51.476 58.4425 51.3851C58.443 38.9487 58.4439 26.6032 58.4437 14.2577C58.4437 14.0907 58.4294 13.9237 58.4219 13.7567Z" fill="#FEFEFF"/>
    <path d="M145.183 44.0642C146.283 48.7895 142.868 52.3229 138.232 52.1256C135.564 52.0121 133.392 50.9654 132.197 48.4625C130.672 45.2698 132.104 41.5871 135.359 40.1253C138.228 38.8364 141.716 39.4137 143.751 41.6357C144.36 42.3003 144.699 43.2115 145.183 44.0642Z" fill="#FD3135"/>
    <path d="M12.4776 3.9375C12.51 4.68082 12.5009 5.46934 12.5008 6.25786C12.4989 21.2673 12.4981 36.2768 12.4863 51.355C12.4296 51.1458 12.3435 50.8681 12.3434 50.5903C12.3379 35.3116 12.3391 20.0329 12.3447 4.75419C12.3448 4.49702 12.407 4.23987 12.4776 3.9375Z" fill="#5425AF"/>
    <path d="M58.3895 13.8103C58.4287 13.9238 58.4429 14.0908 58.4429 14.2578C58.4432 26.6033 58.4423 38.9487 58.4316 51.3641C58.3754 51.1319 58.289 50.8298 58.2888 50.5277C58.2831 38.5667 58.2847 26.6056 58.2892 14.6446C58.2893 14.3843 58.334 14.1241 58.3895 13.8103Z" fill="#5425AF"/>
    <path d="M12.6699 51.5987C17.5213 51.5597 22.4254 51.5566 27.3295 51.5426C30.5109 51.5335 33.6923 51.5085 36.936 51.4962C36.7316 51.569 36.4649 51.6945 36.1979 51.695C28.5843 51.7078 20.9706 51.7086 13.3569 51.7068C13.1455 51.7068 12.934 51.6568 12.6699 51.5987Z" fill="#5425AF"/>
    <path d="M36.091 3.86824C28.2996 3.89888 20.4686 3.89163 12.5723 3.89209C12.7793 3.8411 13.0516 3.73142 13.324 3.73111C20.6428 3.72273 27.9615 3.72454 35.2803 3.73092C35.5374 3.73114 35.7944 3.79575 36.091 3.86824Z" fill="#5425AF"/>
    <path d="M70.1177 51.3529C70.0806 46.2971 70.0612 41.1897 70.0708 36.0823C70.0735 34.6309 70.1499 33.1791 70.2164 31.7286C70.2326 31.3755 70.3433 31.0267 70.4408 30.6361C70.3837 31.8554 70.2273 33.1141 70.2207 34.3736C70.1928 39.7076 70.2104 45.0417 70.2071 50.3758C70.2069 50.6843 70.1675 50.9928 70.1177 51.3529Z" fill="#5425AF"/>
    <path d="M82.0229 25.3495C81.9798 21.4005 81.9716 17.4057 81.9688 13.3522C82.0276 13.4924 82.127 13.6912 82.1275 13.8902C82.1369 17.5318 82.1354 21.1734 82.1312 24.815C82.131 24.9779 82.0833 25.1407 82.0229 25.3495Z" fill="#5425AF"/>
    <path d="M58.4922 51.5607C62.2717 51.5288 66.098 51.5349 69.9898 51.5356C69.8325 51.5898 69.6098 51.7004 69.3867 51.7011C65.9788 51.7119 62.5709 51.7103 59.163 51.7035C58.9549 51.7031 58.747 51.6352 58.4922 51.5607Z" fill="#5425AF"/>
    <path d="M70.0079 13.618C66.2283 13.6526 62.4042 13.6497 58.5137 13.6551C58.6711 13.6044 58.8949 13.4948 59.119 13.4941C62.5485 13.4831 65.9781 13.485 69.4077 13.4904C69.5929 13.4907 69.7781 13.5492 70.0079 13.618Z" fill="#5425AF"/>
    <path d="M74.293 26.2702C75.4311 26.0322 76.6233 25.6986 77.8364 25.5819C79.1083 25.4595 80.4002 25.5451 81.7457 25.5501C81.5333 25.6062 81.2601 25.6766 80.9836 25.6939C79.306 25.7987 77.6265 25.8765 75.95 25.9969C75.415 26.0354 74.8873 26.176 74.293 26.2702Z" fill="#5425AF"/>
    <path d="M103.689 52.0745C105.135 52.0273 106.622 52.0223 108.175 52.0245C108.17 52.0943 108.107 52.1999 108.028 52.2133C106.59 52.4576 105.153 52.6037 103.689 52.0745Z" fill="#5425AF"/>
    <path d="M101.709 51.8322C102.294 51.8624 102.912 51.9377 103.571 52.0598C102.989 52.0302 102.365 51.9537 101.709 51.8322Z" fill="#5425AF"/>
    <path d="M71.6699 28.1226C71.8304 27.8922 72.042 27.6576 72.2974 27.405C72.1346 27.6308 71.9278 27.8747 71.6699 28.1226Z" fill="#5425AF"/>
    <path d="M71.1152 28.9916C71.1864 28.7799 71.3053 28.5538 71.4651 28.3024C71.3917 28.5105 71.2774 28.7438 71.1152 28.9916Z" fill="#5425AF"/>
    <path d="M70.5332 30.5196C70.5573 30.2884 70.6219 30.0288 70.7207 29.7327C70.6946 29.9611 70.6341 30.2263 70.5332 30.5196Z" fill="#5425AF"/>
    <path d="M70.8086 29.6756C70.8386 29.4758 70.9182 29.2659 71.036 29.0248C71.0022 29.2176 70.9302 29.4415 70.8086 29.6756Z" fill="#5425AF"/>
    <path d="M73.127 26.8469C73.2298 26.7484 73.3854 26.6482 73.5869 26.5406C73.4818 26.6372 73.3308 26.7413 73.127 26.8469Z" fill="#5425AF"/>
    <path d="M73.6855 26.5403C73.7996 26.4472 73.9665 26.3592 74.1816 26.2711C74.0659 26.3625 73.9022 26.454 73.6855 26.5403Z" fill="#5425AF"/>
    <path d="M72.6914 27.1317C72.7596 27.0406 72.8769 26.9474 73.0403 26.8478C72.9711 26.9374 72.8559 27.0334 72.6914 27.1317Z" fill="#5425AF"/>
    <path d="M72.5179 27.2611C72.5138 27.2348 72.5445 27.1891 72.6168 27.1342C72.6232 27.1638 72.5879 27.2028 72.5179 27.2611Z" fill="#5425AF"/>
    <path d="M72.3594 27.3927C72.3585 27.3678 72.3938 27.3227 72.4724 27.2688C72.4756 27.2975 72.4356 27.335 72.3594 27.3927Z" fill="#5425AF"/>
    <path d="M71.5282 28.265C71.5224 28.2413 71.5461 28.1915 71.6096 28.1259C71.6188 28.153 71.5883 28.1959 71.5282 28.265Z" fill="#5425AF"/>
    <path d="M34.4335 13.5936C31.4159 13.1396 28.3355 13.4176 25.2657 13.3546C24.271 13.3342 24.2667 13.3538 24.2654 14.3388C24.2621 16.9418 24.2767 19.5449 24.2509 22.1477C24.2449 22.7601 24.4269 22.9986 25.0663 22.983C27.8092 22.9161 30.5532 22.8922 33.2964 22.8387C33.6503 22.8318 34.0025 22.7439 34.4178 22.6968C33.93 22.8347 33.3813 23.0782 32.8294 23.0857C29.9601 23.1249 27.09 23.104 24.1699 23.104C24.1699 19.8239 24.1699 16.539 24.1699 13.1878C26.0497 13.1878 27.9114 13.1405 29.7694 13.2024C31.3132 13.2539 32.8527 13.4336 34.4335 13.5936Z" fill="#5425AF"/>
    <path d="M37.599 18.6053C37.3614 17.6475 37.1387 16.6245 36.916 15.543C37.5646 16.408 37.6563 17.4588 37.599 18.6053Z" fill="#5425AF"/>
    <path d="M37.2207 20.3546C37.2825 19.9394 37.3787 19.4849 37.5135 19.0051C37.4531 19.425 37.354 19.8702 37.2207 20.3546Z" fill="#5425AF"/>
    <path d="M35.1599 13.8821C34.9653 13.8543 34.7366 13.7905 34.4902 13.6787C34.6903 13.7025 34.908 13.7744 35.1599 13.8821Z" fill="#5425AF"/>
    <path d="M36.0442 14.4491C35.8748 14.3809 35.6832 14.2712 35.4785 14.1124C35.651 14.1781 35.8364 14.2928 36.0442 14.4491Z" fill="#5425AF"/>
    <path d="M34.5137 22.7034C34.6712 22.6089 34.8797 22.511 35.1389 22.412C34.9814 22.5073 34.773 22.6036 34.5137 22.7034Z" fill="#5425AF"/>
    <path d="M36.8027 21.1122C36.8304 21.0008 36.8967 20.8631 37.0014 20.6978C36.9737 20.8087 36.9076 20.9473 36.8027 21.1122Z" fill="#5425AF"/>
    <path d="M36.9197 15.4594C36.876 15.4349 36.8256 15.3664 36.7656 15.2555C36.8083 15.2805 36.8607 15.348 36.9197 15.4594Z" fill="#5425AF"/>
    <path d="M35.4545 14.0336C35.3986 14.0408 35.3204 14.0099 35.2148 13.9465C35.269 13.9411 35.3506 13.9683 35.4545 14.0336Z" fill="#5425AF"/>
    <path d="M37.0704 20.6458C37.0684 20.5969 37.0984 20.5196 37.1587 20.4137C37.1602 20.4626 37.1313 20.54 37.0704 20.6458Z" fill="#5425AF"/>
    <path d="M36.6156 15.0408C36.5907 15.0449 36.5531 15.0099 36.4922 14.9439C36.5135 14.9425 36.5581 14.972 36.6156 15.0408Z" fill="#5425AF"/>
    <path d="M36.7552 15.1862C36.7288 15.1914 36.6926 15.1576 36.6348 15.0934C36.6572 15.0911 36.7013 15.1191 36.7552 15.1862Z" fill="#5425AF"/>
    <path d="M36.4805 14.8944C36.4537 14.8996 36.4144 14.8638 36.3516 14.7958C36.3746 14.7935 36.4214 14.8234 36.4805 14.8944Z" fill="#5425AF"/>
    <path d="M36.3413 14.7496C36.3147 14.7549 36.2742 14.719 36.209 14.6508C36.2319 14.6484 36.2796 14.6784 36.3413 14.7496Z" fill="#5425AF"/>
    <path d="M36.2 14.6042C36.1724 14.6109 36.1306 14.5763 36.0645 14.509C36.0886 14.5051 36.1372 14.534 36.2 14.6042Z" fill="#5425AF"/>
</svg>