<svg xmlns="http://www.w3.org/2000/svg" width="149" height="56" viewBox="0 0 149 56" fill="none">
    <path d="M12.6192 51.5672C12.5763 51.5479 12.5402 51.5199 12.5044 51.3846C12.4987 36.2767 12.4995 21.2672 12.5014 6.25768C12.5015 5.46916 12.5106 4.68064 12.5156 3.89212C12.5156 3.89212 12.5056 3.88928 12.5717 3.88672C20.4688 3.89139 28.2998 3.89864 36.1308 3.90589C37.444 4.13966 38.781 4.28368 40.0658 4.62445C43.5748 5.55513 46.4598 7.39098 48.2062 10.6924C51.499 16.9175 48.7445 24.2922 42.2023 26.8266C42.004 26.9035 41.8036 26.9749 41.5713 27.061C42.4043 27.3783 43.2333 27.6121 43.9868 27.9946C48.0646 30.0644 50.2518 33.4313 50.5244 37.9701C50.7235 41.2841 49.8861 44.3238 47.6105 46.8545C45.7964 48.8719 43.5194 50.139 40.9161 50.794C39.6709 51.1073 38.3795 51.2371 36.9923 51.4703C33.6942 51.5084 30.5128 51.5334 27.3314 51.5425C22.4273 51.5565 17.5232 51.5595 12.6192 51.5672ZM36.1864 14.5627C36.1378 14.5338 36.0893 14.5049 36.0464 14.4963C36.0464 14.4963 36.0667 14.4904 36.0221 14.4073C35.8366 14.2926 35.6512 14.1778 35.4675 14.0733C35.4675 14.0733 35.4777 14.0715 35.433 13.9953C35.3515 13.9681 35.2699 13.9409 35.1867 13.9242C35.1867 13.9242 35.1952 13.9179 35.1269 13.8461C34.9092 13.7743 34.6915 13.7024 34.4627 13.6408C34.4627 13.6408 34.4741 13.6304 34.3955 13.5563C32.8541 13.4334 31.3145 13.2536 29.7707 13.2022C27.9127 13.1403 26.051 13.1875 24.1713 13.1875C24.1713 16.5387 24.1713 19.8237 24.1713 23.1037C27.0914 23.1037 29.9615 23.1247 32.8308 23.0855C33.3827 23.0779 33.9313 22.8344 34.469 22.694C34.469 22.694 34.4634 22.7066 34.5653 22.6996C34.7736 22.6033 34.982 22.507 35.2911 22.4038C35.7826 21.982 36.2742 21.5601 36.8432 21.0856C36.9093 20.9471 36.9754 20.8085 37.0435 20.6731C37.0435 20.6731 37.0399 20.674 37.1037 20.6172C37.1327 20.5397 37.1616 20.4623 37.1839 20.3875C37.1839 20.3875 37.1877 20.3936 37.2562 20.3151C37.3553 19.8699 37.4544 19.4248 37.5903 18.8805C37.5882 18.8104 37.5862 18.7404 37.614 18.54C37.6563 17.4586 37.5646 16.4078 36.9122 15.4997C36.9122 15.4997 36.9278 15.5032 36.9146 15.4153C36.8622 15.3479 36.8099 15.2804 36.7556 15.223C36.7556 15.223 36.7657 15.2251 36.7461 15.1469C36.702 15.1189 36.6579 15.0909 36.6133 15.0792C36.6133 15.0792 36.6298 15.0798 36.6041 15.0013C36.5595 14.9718 36.5149 14.9423 36.4705 14.9353C36.4705 14.9353 36.493 14.9351 36.4682 14.8533C36.4215 14.8233 36.3748 14.7933 36.3279 14.7904C36.3279 14.7904 36.355 14.7906 36.3271 14.7082C36.2794 14.6782 36.2316 14.6482 36.1859 14.6471C36.1859 14.6471 36.2148 14.6452 36.1864 14.5627ZM33.4591 42.1345C33.6261 42.1224 33.7935 42.1141 33.9601 42.0977C37.6568 41.7352 39.6032 38.8036 38.5072 35.2501C37.8926 33.2571 35.905 31.7847 33.5868 31.7329C30.574 31.6655 27.5593 31.6798 24.5453 31.6638C24.4132 31.6631 24.2808 31.7109 24.1725 31.7316C24.1725 35.2337 24.1725 38.6899 24.1725 42.148C27.2589 42.148 30.2931 42.148 33.4591 42.1345Z" fill="currentColor"/>
    <path d="M103.647 52.0311C103.647 52.0311 103.594 52.0513 103.561 52.0315C102.911 51.9363 102.294 51.8611 101.676 51.7858C99.142 51.2212 96.7192 50.3805 94.5476 48.9139C89.9298 45.7952 87.3436 41.411 86.6099 35.9399C86.071 31.9209 86.3608 27.9613 88.0228 24.1979C90.4806 18.6326 94.7245 15.1628 100.617 13.7749C106.699 12.3425 112.52 12.9975 117.801 16.5159C122.23 19.4661 124.639 23.7625 125.484 28.9542C126.065 32.5242 125.892 36.0757 124.676 39.5003C122.289 46.2256 117.442 50.1588 110.546 51.674C109.825 51.8324 109.082 51.8917 108.229 52.0065C106.622 52.0211 105.135 52.0261 103.647 52.0311ZM107.448 23.2613C102.923 22.5553 99.4784 25.2571 98.5527 29.2593C98.0559 31.4072 98.0582 33.5737 98.5032 35.7327C99.2381 39.2978 101.924 41.7967 105.274 42.0516C108.878 42.3258 112.026 40.2814 113.294 36.8169C113.99 34.9145 114.053 32.9422 113.871 30.9473C113.523 27.1378 111.257 24.0465 107.448 23.2613Z" fill="currentColor"/>
    <path d="M58.4199 13.7572C58.4199 13.7572 58.4411 13.7128 58.5102 13.68C62.4034 13.6502 66.2275 13.6531 70.0515 13.6559C70.0515 15.6736 70.0515 17.6912 70.0515 19.9341C73.0211 15.7043 76.8262 13.3723 81.9085 13.3379C81.971 17.4061 81.9792 21.4009 81.9874 25.3958C81.9484 25.4336 81.9094 25.4714 81.7764 25.5248C80.3993 25.5456 79.1074 25.4599 77.8355 25.5823C76.6224 25.6991 75.4302 26.0327 74.2288 26.2709C74.2288 26.2709 74.2352 26.2774 74.1836 26.2745C73.9651 26.3597 73.7982 26.4476 73.6312 26.5356C73.6312 26.5356 73.6585 26.5608 73.5999 26.5547C73.3857 26.6487 73.23 26.7489 73.0744 26.8491C73.0744 26.8491 73.0841 26.8516 73.0392 26.8531C72.877 26.9478 72.7596 27.0411 72.6422 27.1343C72.6422 27.1343 72.6546 27.1378 72.6147 27.1409C72.5441 27.1896 72.5135 27.2352 72.4828 27.2809C72.4828 27.2809 72.5092 27.2869 72.469 27.2824C72.3935 27.3231 72.3582 27.3682 72.3228 27.4133C72.3228 27.4133 72.345 27.4095 72.2988 27.4165C72.0411 27.6581 71.8295 27.8926 71.618 28.1272C71.618 28.1272 71.6415 28.1342 71.6052 28.1382C71.5451 28.192 71.5213 28.2418 71.4975 28.2916C71.4975 28.2916 71.5086 28.2887 71.4662 28.3084C71.3049 28.5542 71.186 28.7804 71.0671 29.0065C71.0671 29.0065 71.0769 29.0039 71.0374 29.0301C70.9182 29.2663 70.8386 29.4762 70.759 29.6861C70.759 29.6861 70.7529 29.6895 70.7189 29.7296C70.6204 30.0293 70.5558 30.2888 70.4912 30.5484C70.4912 30.5484 70.4613 30.564 70.4353 30.6202C70.342 31.0271 70.2314 31.3759 70.2152 31.729C70.1487 33.1795 70.0723 34.6313 70.0696 36.0827C70.06 41.1901 70.0794 46.2975 70.0878 51.4049C70.0878 51.4049 70.0636 51.4659 69.9933 51.5037C66.0967 51.5354 62.2704 51.5293 58.444 51.5232C58.444 51.5232 58.4409 51.4765 58.4406 51.3856C58.441 38.9492 58.4419 26.6037 58.4417 14.2582C58.4417 14.0912 58.4275 13.9242 58.4199 13.7572Z" fill="currentColor"/>
    <path d="M145.183 44.0632C146.283 48.7885 142.868 52.3219 138.232 52.1247C135.564 52.0112 133.392 50.9645 132.197 48.4615C130.672 45.2688 132.104 41.5861 135.359 40.1243C138.228 38.8354 141.716 39.4127 143.751 41.6347C144.36 42.2993 144.699 43.2105 145.183 44.0632Z" fill="#FD3135"/>
    <path d="M12.4776 3.9375C12.51 4.68082 12.5009 5.46934 12.5008 6.25786C12.4989 21.2673 12.4981 36.2768 12.4863 51.355C12.4296 51.1458 12.3435 50.8681 12.3434 50.5903C12.3379 35.3116 12.3391 20.0329 12.3447 4.75419C12.3448 4.49702 12.407 4.23987 12.4776 3.9375Z" fill="#5425AF"/>
    <path d="M58.3895 13.8105C58.4287 13.924 58.4429 14.091 58.4429 14.258C58.4432 26.6035 58.4423 38.949 58.4316 51.3643C58.3754 51.1321 58.289 50.8301 58.2888 50.528C58.2831 38.5669 58.2847 26.6059 58.2892 14.6448C58.2893 14.3846 58.334 14.1243 58.3895 13.8105Z" fill="#5425AF"/>
    <path d="M12.6699 51.5986C17.5213 51.5596 22.4254 51.5565 27.3295 51.5425C30.5109 51.5334 33.6923 51.5084 36.936 51.4961C36.7316 51.5689 36.4649 51.6944 36.1979 51.6949C28.5843 51.7076 20.9706 51.7085 13.3569 51.7067C13.1455 51.7067 12.934 51.6566 12.6699 51.5986Z" fill="#5425AF"/>
    <path d="M36.091 3.86738C28.2996 3.89802 20.4686 3.89077 12.5723 3.89124C12.7793 3.84024 13.0516 3.73057 13.324 3.73025C20.6428 3.72187 27.9615 3.72369 35.2803 3.73007C35.5374 3.73029 35.7944 3.7949 36.091 3.86738Z" fill="#5425AF"/>
    <path d="M70.1177 51.3535C70.0806 46.2977 70.0612 41.1903 70.0708 36.0829C70.0735 34.6315 70.1499 33.1797 70.2164 31.7292C70.2326 31.3761 70.3433 31.0273 70.4408 30.6367C70.3837 31.856 70.2273 33.1147 70.2207 34.3743C70.1928 39.7082 70.2104 45.0424 70.2071 50.3764C70.2069 50.6849 70.1675 50.9934 70.1177 51.3535Z" fill="#5425AF"/>
    <path d="M82.0229 25.3489C81.9798 21.3999 81.9716 17.4051 81.9688 13.3516C82.0276 13.4918 82.127 13.6906 82.1275 13.8896C82.1369 17.5312 82.1354 21.1728 82.1312 24.8144C82.131 24.9773 82.0833 25.1401 82.0229 25.3489Z" fill="#5425AF"/>
    <path d="M58.4922 51.5612C62.2717 51.5293 66.098 51.5354 69.9898 51.5361C69.8325 51.5902 69.6098 51.7009 69.3867 51.7016C65.9788 51.7124 62.5709 51.7108 59.163 51.704C58.9549 51.7036 58.747 51.6357 58.4922 51.5612Z" fill="#5425AF"/>
    <path d="M70.0079 13.6182C66.2283 13.6528 62.4042 13.6499 58.5137 13.6553C58.6711 13.6047 58.8949 13.495 59.119 13.4943C62.5485 13.4834 65.9781 13.4852 69.4077 13.4907C69.5929 13.491 69.7781 13.5494 70.0079 13.6182Z" fill="#5425AF"/>
    <path d="M74.293 26.2695C75.4311 26.0315 76.6233 25.6979 77.8364 25.5812C79.1083 25.4588 80.4002 25.5444 81.7457 25.5494C81.5333 25.6054 81.2601 25.6759 80.9836 25.6932C79.306 25.798 77.6265 25.8758 75.95 25.9962C75.415 26.0346 74.8873 26.1753 74.293 26.2695Z" fill="#5425AF"/>
    <path d="M103.689 52.0739C105.135 52.0267 106.622 52.0217 108.175 52.0238C108.17 52.0937 108.107 52.1993 108.028 52.2127C106.59 52.457 105.153 52.6031 103.689 52.0739Z" fill="#5425AF"/>
    <path d="M101.709 51.832C102.294 51.8623 102.912 51.9375 103.571 52.0597C102.989 52.03 102.365 51.9536 101.709 51.832Z" fill="#5425AF"/>
    <path d="M71.6699 28.1239C71.8304 27.8934 72.042 27.6589 72.2974 27.4062C72.1346 27.632 71.9278 27.8759 71.6699 28.1239Z" fill="#5425AF"/>
    <path d="M71.1152 28.992C71.1864 28.7803 71.3053 28.5541 71.4651 28.3027C71.3917 28.5108 71.2774 28.7442 71.1152 28.992Z" fill="#5425AF"/>
    <path d="M70.5332 30.5194C70.5573 30.2881 70.6219 30.0286 70.7207 29.7324C70.6946 29.9609 70.6341 30.226 70.5332 30.5194Z" fill="#5425AF"/>
    <path d="M70.8105 29.6742C70.8405 29.4744 70.9201 29.2645 71.0379 29.0234C71.0041 29.2162 70.9322 29.4402 70.8105 29.6742Z" fill="#5425AF"/>
    <path d="M73.127 26.8473C73.2298 26.7488 73.3854 26.6486 73.5869 26.541C73.4818 26.6376 73.3308 26.7416 73.127 26.8473Z" fill="#5425AF"/>
    <path d="M73.6855 26.5407C73.7996 26.4476 73.9665 26.3596 74.1816 26.2715C74.0659 26.3629 73.9022 26.4544 73.6855 26.5407Z" fill="#5425AF"/>
    <path d="M72.6914 27.1315C72.7596 27.0405 72.8769 26.9473 73.0403 26.8477C72.9711 26.9373 72.8559 27.0333 72.6914 27.1315Z" fill="#5425AF"/>
    <path d="M72.5179 27.2598C72.5138 27.2334 72.5445 27.1878 72.6168 27.1328C72.6232 27.1625 72.5879 27.2015 72.5179 27.2598Z" fill="#5425AF"/>
    <path d="M72.3594 27.3934C72.3585 27.3685 72.3938 27.3234 72.4724 27.2695C72.4756 27.2982 72.4356 27.3357 72.3594 27.3934Z" fill="#5425AF"/>
    <path d="M71.5282 28.2641C71.5224 28.2404 71.5461 28.1906 71.6096 28.125C71.6188 28.1521 71.5883 28.1951 71.5282 28.2641Z" fill="#5425AF"/>
    <path d="M34.4335 13.5949C31.4159 13.141 28.3355 13.419 25.2657 13.356C24.271 13.3356 24.2667 13.3551 24.2654 14.3401C24.2621 16.9431 24.2767 19.5463 24.2509 22.149C24.2449 22.7615 24.4269 22.9999 25.0663 22.9844C27.8092 22.9175 30.5532 22.8935 33.2964 22.8401C33.6503 22.8332 34.0025 22.7453 34.4178 22.6981C33.93 22.836 33.3813 23.0795 32.8294 23.087C29.9601 23.1262 27.09 23.1053 24.1699 23.1053C24.1699 19.8252 24.1699 16.5403 24.1699 13.1891C26.0497 13.1891 27.9114 13.1419 29.7694 13.2038C31.3132 13.2552 32.8527 13.435 34.4335 13.5949Z" fill="#5425AF"/>
    <path d="M37.599 18.6053C37.3614 17.6475 37.1387 16.6245 36.916 15.543C37.5646 16.408 37.6563 17.4588 37.599 18.6053Z" fill="#5425AF"/>
    <path d="M37.2207 20.3553C37.2825 19.9401 37.3787 19.4856 37.5135 19.0059C37.4531 19.4258 37.354 19.8709 37.2207 20.3553Z" fill="#5425AF"/>
    <path d="M35.1599 13.8831C34.9653 13.8552 34.7366 13.7915 34.4902 13.6797C34.6903 13.7035 34.908 13.7754 35.1599 13.8831Z" fill="#5425AF"/>
    <path d="M36.0442 14.45C35.8748 14.3818 35.6832 14.2721 35.4785 14.1133C35.651 14.1789 35.8364 14.2937 36.0442 14.45Z" fill="#5425AF"/>
    <path d="M34.5137 22.7035C34.6712 22.609 34.8797 22.5111 35.1389 22.4121C34.9814 22.5074 34.773 22.6037 34.5137 22.7035Z" fill="#5425AF"/>
    <path d="M36.8027 21.1117C36.8304 21.0003 36.8967 20.8626 37.0014 20.6973C36.9737 20.8082 36.9076 20.9468 36.8027 21.1117Z" fill="#5425AF"/>
    <path d="M36.9216 15.4598C36.8779 15.4353 36.8276 15.3668 36.7676 15.2559C36.8103 15.2809 36.8627 15.3484 36.9216 15.4598Z" fill="#5425AF"/>
    <path d="M35.4545 14.0331C35.3986 14.0403 35.3204 14.0094 35.2148 13.946C35.269 13.9406 35.3506 13.9678 35.4545 14.0331Z" fill="#5425AF"/>
    <path d="M37.0724 20.6462C37.0704 20.5973 37.1003 20.5199 37.1607 20.4141C37.1622 20.4629 37.1332 20.5403 37.0724 20.6462Z" fill="#5425AF"/>
    <path d="M36.6175 15.0403C36.5927 15.0444 36.5551 15.0094 36.4941 14.9434C36.5155 14.942 36.5601 14.9715 36.6175 15.0403Z" fill="#5425AF"/>
    <path d="M36.7552 15.1867C36.7288 15.1919 36.6926 15.1581 36.6348 15.0939C36.6572 15.0916 36.7013 15.1196 36.7552 15.1867Z" fill="#5425AF"/>
    <path d="M36.4805 14.8936C36.4537 14.8988 36.4144 14.8631 36.3516 14.795C36.3746 14.7927 36.4214 14.8227 36.4805 14.8936Z" fill="#5425AF"/>
    <path d="M36.3413 14.7494C36.3147 14.7547 36.2742 14.7188 36.209 14.6505C36.2319 14.6482 36.2796 14.6782 36.3413 14.7494Z" fill="#5425AF"/>
    <path d="M36.2 14.6033C36.1724 14.61 36.1306 14.5755 36.0645 14.5082C36.0886 14.5043 36.1372 14.5332 36.2 14.6033Z" fill="#5425AF"/>
  </svg>