<svg xmlns="http://www.w3.org/2000/svg" width="24" height="24" viewBox="0 0 24 24" fill="none">
  <path fill-rule="evenodd" clip-rule="evenodd" d="M16.1256 12.0004C16.1256 11.8015 16.0465 11.6107 15.9059 11.47C15.7652 11.3294 15.5745 11.2504 15.3756 11.2504H4.40256L6.36356 9.57036C6.43841 9.50628 6.49991 9.42808 6.54454 9.34022C6.58917 9.25237 6.61606 9.15659 6.62368 9.05835C6.63129 8.9601 6.61948 8.86132 6.58892 8.76764C6.55836 8.67396 6.50964 8.58722 6.44556 8.51236C6.38147 8.43751 6.30327 8.37601 6.21542 8.33138C6.12757 8.28675 6.03178 8.25986 5.93354 8.25224C5.8353 8.24463 5.73651 8.25644 5.64283 8.287C5.54915 8.31756 5.46241 8.36628 5.38756 8.43036L1.88756 11.4304C1.80522 11.5008 1.73912 11.5882 1.69379 11.6866C1.64847 11.785 1.625 11.892 1.625 12.0004C1.625 12.1087 1.64847 12.2157 1.69379 12.3141C1.73912 12.4125 1.80522 12.5 1.88756 12.5704L5.38756 15.5704C5.53873 15.6998 5.73513 15.7639 5.93354 15.7485C6.13195 15.7331 6.31613 15.6395 6.44556 15.4884C6.57498 15.3372 6.63905 15.1408 6.62368 14.9424C6.6083 14.744 6.51473 14.5598 6.36356 14.4304L4.40356 12.7504H15.3756C15.5745 12.7504 15.7652 12.6713 15.9059 12.5307C16.0465 12.39 16.1256 12.1993 16.1256 12.0004Z" fill="currentColor"/>
  <path d="M9.375 8C9.375 8.702 9.375 9.053 9.544 9.306C9.61679 9.41478 9.71022 9.50821 9.819 9.581C10.072 9.75 10.423 9.75 11.125 9.75H15.375C15.9717 9.75 16.544 9.98705 16.966 10.409C17.3879 10.831 17.625 11.4033 17.625 12C17.625 12.5967 17.3879 13.169 16.966 13.591C16.544 14.0129 15.9717 14.25 15.375 14.25H11.125C10.423 14.25 10.072 14.25 9.819 14.418C9.71012 14.4911 9.61668 14.5849 9.544 14.694C9.375 14.947 9.375 15.298 9.375 16C9.375 18.828 9.375 20.243 10.254 21.121C11.132 22 12.546 22 15.374 22H16.374C19.204 22 20.617 22 21.496 21.121C22.375 20.243 22.375 18.828 22.375 16V8C22.375 5.172 22.375 3.757 21.496 2.879C20.617 2.001 19.203 2 16.375 2H15.375C12.546 2 11.132 2 10.254 2.879C9.375 3.757 9.375 5.172 9.375 8Z" fill="currentColor"/>
</svg>