<svg width="20" height="20" viewBox="0 0 20 20" fill="none" xmlns="http://www.w3.org/2000/svg">
<g clip-path="url(#clip0_3172_10166)">
<path d="M10.0004 4.00015C10.2631 4.00008 10.5232 3.94827 10.7659 3.84768C11.0086 3.74708 11.2291 3.59967 11.4148 3.41386C11.6005 3.22805 11.7478 3.00748 11.8483 2.76474C11.9488 2.522 12.0005 2.26185 12.0004 1.99915C12.0003 1.73644 11.9485 1.47631 11.8479 1.23363C11.7473 0.990939 11.5999 0.770442 11.4141 0.584725C11.2283 0.399008 11.0077 0.251707 10.765 0.151233C10.5223 0.0507593 10.2621 -0.000920095 9.9994 -0.00085443C9.46884 -0.000721814 8.96006 0.210172 8.58498 0.585432C8.20991 0.960692 7.99927 1.46958 7.9994 2.00015C7.99954 2.53071 8.21043 3.03949 8.58569 3.41457C8.96095 3.78964 9.46984 4.00028 10.0004 4.00015ZM15.9784 11.5831C15.5934 9.80815 14.9204 6.89515 13.9364 5.68915C12.9794 4.51615 11.0514 4.46715 10.0004 4.46715C8.9494 4.46715 7.0214 4.51615 6.0644 5.68915C5.0804 6.89515 4.4074 9.80815 4.0224 11.5831C3.8094 12.5661 5.1764 12.9271 5.5334 11.9381C6.0644 10.4651 6.4744 9.22815 7.3724 8.20215C7.8444 11.1091 6.1024 16.1681 6.0004 19.0001C6.00023 19.2339 6.08197 19.4604 6.2314 19.6401C6.38083 19.8199 6.58853 19.9416 6.81839 19.9842C7.04825 20.0267 7.28575 19.9874 7.48963 19.873C7.69351 19.7587 7.85089 19.5765 7.9344 19.3581C8.3914 17.7711 10.0004 13.3551 10.0004 13.3551C10.0004 13.3551 11.6094 17.7711 12.0664 19.3581C12.1499 19.5765 12.3073 19.7587 12.5112 19.873C12.7151 19.9874 12.9526 20.0267 13.1824 19.9842C13.4123 19.9416 13.62 19.8199 13.7694 19.6401C13.9188 19.4604 14.0006 19.2339 14.0004 19.0001C13.8984 16.1681 12.1564 11.1091 12.6284 8.20315C13.5264 9.22915 13.9364 10.4661 14.4674 11.9391C14.8234 12.9271 16.1914 12.5661 15.9784 11.5831Z" fill="currentColor"/>
</g>
<defs>
<clipPath id="clip0_3172_10166">
<rect width="20" height="20" fill="currentColor"/>
</clipPath>
</defs>
</svg>
