<svg width="16" height="16" viewBox="0 0 16 16" fill="none" xmlns="http://www.w3.org/2000/svg">
<path d="M8.00065 11.3334L8.66732 10V6.57204C9.81465 6.27404 10.6673 5.23871 10.6673 4.00004C10.6673 2.52937 9.47132 1.33337 8.00065 1.33337C6.52998 1.33337 5.33398 2.52937 5.33398 4.00004C5.33398 5.23871 6.18665 6.27404 7.33398 6.57204V10L8.00065 11.3334Z" fill="currentColor"/>
<path d="M10.8453 7.04205L10.49 8.32738C12.2173 8.80472 13.334 9.72272 13.334 10.6667C13.334 11.928 11.144 13.3334 8.00065 13.3334C4.85732 13.3334 2.66732 11.928 2.66732 10.6667C2.66732 9.72272 3.78398 8.80471 5.51198 8.32671L5.15665 7.04138C2.79865 7.69338 1.33398 9.08205 1.33398 10.6667C1.33398 12.9094 4.26265 14.6667 8.00065 14.6667C11.7387 14.6667 14.6673 12.9094 14.6673 10.6667C14.6673 9.08205 13.2027 7.69338 10.8453 7.04205Z" fill="currentColor"/>
</svg>
