<svg xmlns="http://www.w3.org/2000/svg" width="91" height="91" viewBox="0 0 91 91" fill="none">
  <path d="M45.5 0C20.4116 0 0 20.4116 0 45.5C0 70.5884 20.4116 91 45.5 91C70.5884 91 91 70.5884 91 45.5C91 20.4116 70.5884 0 45.5 0ZM56.0416 26.5606L61.3134 31.1675L45.2113 49.5644L39.9394 44.52L56.0416 26.5606ZM31.4847 64.4503L16.0497 49L21 44.0497L36.4372 59.5L31.4847 64.4503ZM45.7034 64.6231L30.0891 49L35.0416 44.0519L45.3578 54.3791L69.6675 26.5606L74.9394 31.1675L45.7034 64.6231Z" fill="#319F43"/>
</svg>
