<svg xmlns="http://www.w3.org/2000/svg" viewBox="0 0 24 24" fill="none">
  <path d="M4.93108 4.28613C4.0786 4.28613 3.26103 4.62478 2.65824 5.22758C2.05544 5.83037 1.7168 6.64794 1.7168 7.50042V8.14328H22.2848V7.50042C22.2848 6.64794 21.9462 5.83037 21.3434 5.22758C20.7406 4.62478 19.923 4.28613 19.0705 4.28613H4.93108ZM1.7168 16.5004V9.42899H22.2848V16.5004C22.2848 17.3529 21.9462 18.1705 21.3434 18.7733C20.7406 19.3761 19.923 19.7147 19.0705 19.7147H4.93194C4.07946 19.7147 3.26189 19.3761 2.6591 18.7733C2.0563 18.1705 1.71765 17.3529 1.71765 16.5004M15.6419 14.1433C15.4714 14.1433 15.3079 14.211 15.1874 14.3316C15.0668 14.4521 14.9991 14.6156 14.9991 14.7861C14.9991 14.9566 15.0668 15.1201 15.1874 15.2407C15.3079 15.3613 15.4714 15.429 15.6419 15.429H18.6419C18.8124 15.429 18.976 15.3613 19.0965 15.2407C19.2171 15.1201 19.2848 14.9566 19.2848 14.7861C19.2848 14.6156 19.2171 14.4521 19.0965 14.3316C18.976 14.211 18.8124 14.1433 18.6419 14.1433H15.6419Z" fill="currentColor"/>
</svg>