<svg xmlns="http://www.w3.org/2000/svg" width="19" height="19" viewBox="0 0 19 19" fill="none">
  <path d="M14.9856 15.8337C13.6514 15.8337 12.2834 15.4996 10.8816 14.8314C9.47982 14.1632 8.17515 13.2251 6.9676 12.017C5.76954 10.8095 4.83643 9.50719 4.16827 8.11016C3.5001 6.71313 3.16602 5.34777 3.16602 4.01408C3.16602 3.77658 3.24518 3.57602 3.40352 3.41241C3.56185 3.2488 3.75977 3.16699 3.99727 3.16699L5.95506 3.16699C6.17039 3.16699 6.35828 3.23481 6.51872 3.37045C6.67917 3.50609 6.78763 3.67999 6.8441 3.89216L7.23677 5.77949C7.27371 6.00116 7.26711 6.19459 7.21697 6.35978C7.16683 6.52498 7.07896 6.66035 6.95335 6.76591L5.21643 8.38566C5.54154 8.97519 5.9007 9.52302 6.29389 10.0292C6.68709 10.5353 7.10667 11.0148 7.55264 11.4676C8.01181 11.9268 8.50633 12.3543 9.03622 12.7501C9.56611 13.1454 10.1477 13.5186 10.7811 13.8695L12.4744 12.1461C12.6032 12.0073 12.7481 11.9157 12.9091 11.8714C13.0695 11.8276 13.2474 11.8189 13.4426 11.8452L15.1075 12.1857C15.3228 12.2384 15.4975 12.3469 15.6316 12.511C15.7657 12.6752 15.8327 12.8631 15.8327 13.0747L15.8327 15.0024C15.8327 15.2399 15.7509 15.4378 15.5873 15.5962C15.4237 15.7545 15.2231 15.8337 14.9856 15.8337Z" fill="currentColor"/>
</svg>