<svg xmlns="http://www.w3.org/2000/svg" width="24" height="24" viewBox="0 0 24 24" fill="none">
  <path d="M10.428 15.2588L10.4229 15.2468C10.3194 15.2224 10.2165 15.1955 10.1143 15.1662L10.1066 15.1637C9.12884 14.8826 8.22587 14.3875 7.46316 13.7142C6.62435 12.9743 5.97929 12.0404 5.58423 10.9939C5.18916 9.94746 5.05608 8.82024 5.1966 7.71056C5.33712 6.60088 5.74696 5.54242 6.39039 4.62747C7.03383 3.71252 7.89132 2.96886 8.88809 2.46134C9.88487 1.95381 10.9907 1.69784 12.1091 1.71572C13.2275 1.73361 14.3245 2.02481 15.3045 2.56395C16.2846 3.10308 17.1179 3.87378 17.7317 4.80884C18.3456 5.74389 18.7213 6.81492 18.8263 7.92853C18.8597 8.28253 18.5692 8.57138 18.2134 8.57138C17.8586 8.57138 17.5749 8.28253 17.5337 7.92938C17.4204 6.95506 17.0519 6.02792 16.4654 5.24169C15.8789 4.45546 15.0952 3.838 14.1936 3.45174C13.2919 3.06547 12.3043 2.9241 11.3305 3.04189C10.3567 3.15969 9.4313 3.53249 8.64778 4.1226C7.86425 4.71271 7.25041 5.49922 6.8683 6.40263C6.48619 7.30603 6.34936 8.2943 6.47164 9.26754C6.59392 10.2408 6.97097 11.1645 7.56468 11.9453C8.1584 12.7261 8.94773 13.3363 9.85288 13.7142L9.88716 13.7288C10.0586 13.7991 10.2346 13.8611 10.4152 13.9148C10.5669 13.5482 10.841 13.2456 11.1909 13.0585C11.5408 12.8715 11.9447 12.8116 12.3338 12.889C12.723 12.9665 13.0732 13.1765 13.3247 13.4833C13.5763 13.7901 13.7137 14.1746 13.7134 14.5714C13.7138 14.9654 13.5785 15.3474 13.3302 15.6533C13.0819 15.9593 12.7359 16.1703 12.3503 16.251C11.9646 16.3317 11.563 16.2771 11.2129 16.0964C10.8628 15.9157 10.5856 15.6199 10.428 15.2588ZM9.58288 16.3491C8.0602 15.8755 6.71007 14.9653 5.70002 13.7314C5.07406 13.8047 4.49682 14.1053 4.07793 14.5762C3.65903 15.0471 3.42766 15.6554 3.42773 16.2857V16.8985C3.42773 20.0854 7.03631 22.2857 11.9992 22.2857C16.962 22.2857 20.5706 19.9645 20.5706 16.8985V16.2857C20.5706 15.6037 20.2997 14.9496 19.8174 14.4674C19.3352 13.9852 18.6811 13.7142 17.9992 13.7142H14.8749C15.0771 14.3914 15.0337 15.1182 14.7524 15.7665C14.4711 16.4149 13.97 16.9431 13.3374 17.2581C12.7048 17.5731 11.9812 17.6546 11.2944 17.4883C10.6075 17.322 10.0014 16.9186 9.58288 16.3491ZM16.2849 8.57138C16.2849 7.27538 15.7106 6.11396 14.8012 5.32796C14.3449 4.93432 13.8107 4.64135 13.2335 4.46815C12.6563 4.29496 12.049 4.24544 11.4514 4.32283C10.8538 4.40022 10.2792 4.60277 9.76511 4.91727C9.25106 5.23178 8.80912 5.65115 8.46813 6.14802C8.12714 6.6449 7.89477 7.2081 7.78619 7.80086C7.67761 8.39363 7.69526 9.00262 7.83798 9.5881C7.98071 10.1736 8.24531 10.7224 8.6145 11.1987C8.9837 11.675 9.44919 12.068 9.98059 12.3522C10.5328 11.8499 11.2526 11.5714 11.9992 11.5714C12.746 11.5712 13.4661 11.8497 14.0186 12.3522C14.7034 11.9864 15.2759 11.4414 15.6751 10.7755C16.0742 10.1096 16.285 9.34777 16.2849 8.57138Z" fill="currentColor"/>
</svg>