<svg xmlns="http://www.w3.org/2000/svg" width="24" height="24" viewBox="0 0 24 24" fill="none">
  <path d="M12.0004 4.20039C14.0691 4.20039 16.053 5.02217 17.5158 6.48496C18.9786 7.94774 19.8004 9.9317 19.8004 12.0004C19.8004 14.0691 18.9786 16.053 17.5158 17.5158C16.053 18.9786 14.0691 19.8004 12.0004 19.8004V4.20039ZM12.0004 2.40039C9.45431 2.40039 7.01252 3.41182 5.21217 5.21217C3.41182 7.01252 2.40039 9.45431 2.40039 12.0004C2.40039 14.5465 3.41182 16.9883 5.21217 18.7886C7.01252 20.589 9.45431 21.6004 12.0004 21.6004C14.5465 21.6004 16.9883 20.589 18.7886 18.7886C20.589 16.9883 21.6004 14.5465 21.6004 12.0004C21.6004 9.45431 20.589 7.01252 18.7886 5.21217C16.9883 3.41182 14.5465 2.40039 12.0004 2.40039Z" fill="currentColor"/>
</svg>