<svg xmlns="http://www.w3.org/2000/svg" width="29" height="29" viewBox="0 0 29 29" fill="none">
  <path d="M22.9583 4.83301C23.5993 4.83301 24.214 5.08762 24.6672 5.54083C25.1204 5.99405 25.375 6.60873 25.375 7.24967V8.45801H18.125C16.5227 8.45801 14.9859 9.09454 13.8529 10.2276C12.7199 11.3606 12.0833 12.8973 12.0833 14.4997C12.0833 16.102 12.7199 17.6387 13.8529 18.7718C14.9859 19.9048 16.5227 20.5413 18.125 20.5413H25.375V21.7497C25.375 22.3906 25.1204 23.0053 24.6672 23.4585C24.214 23.9117 23.5993 24.1663 22.9583 24.1663H6.04167C5.40073 24.1663 4.78604 23.9117 4.33283 23.4585C3.87961 23.0053 3.625 22.3906 3.625 21.7497V7.24967C3.625 6.60873 3.87961 5.99405 4.33283 5.54083C4.78604 5.08762 5.40073 4.83301 6.04167 4.83301H22.9583ZM24.1667 10.8747C24.8076 10.8747 25.4223 11.1293 25.8755 11.5825C26.3287 12.0357 26.5833 12.6504 26.5833 13.2913V15.708C26.5833 16.3489 26.3287 16.9636 25.8755 17.4168C25.4223 17.8701 24.8076 18.1247 24.1667 18.1247H18.125C17.1636 18.1247 16.2416 17.7428 15.5617 17.0629C14.8819 16.3831 14.5 15.4611 14.5 14.4997C14.5 13.5383 14.8819 12.6162 15.5617 11.9364C16.2416 11.2566 17.1636 10.8747 18.125 10.8747H24.1667ZM18.125 13.2913C17.8045 13.2913 17.4972 13.4186 17.2706 13.6453C17.044 13.8719 16.9167 14.1792 16.9167 14.4997C16.9167 14.8201 17.044 15.1275 17.2706 15.3541C17.4972 15.5807 17.8045 15.708 18.125 15.708C18.4455 15.708 18.7528 15.5807 18.9794 15.3541C19.206 15.1275 19.3333 14.8201 19.3333 14.4997C19.3333 14.1792 19.206 13.8719 18.9794 13.6453C18.7528 13.4186 18.4455 13.2913 18.125 13.2913Z" fill="currentColor"/>
</svg>
