<svg  viewBox="0 0 24 24" fill="none" xmlns="http://www.w3.org/2000/svg">
<path fill-rule="evenodd" clip-rule="evenodd" d="M21.0996 8.00404C21.043 8.00071 20.9826 7.99938 20.9186 8.00004H18.3936C16.3256 8.00004 14.5566 9.62804 14.5566 11.75C14.5566 13.872 16.3266 15.5 18.3936 15.5H20.9186C20.9826 15.5007 21.0433 15.4994 21.1006 15.496C21.5257 15.4704 21.9269 15.2911 22.2295 14.9916C22.5322 14.6921 22.7156 14.2928 22.7456 13.868C22.7496 13.808 22.7496 13.743 22.7496 13.683V9.81704C22.7496 9.75705 22.7496 9.69204 22.7456 9.63204C22.7156 9.20731 22.5322 8.80798 22.2295 8.50846C21.9269 8.20895 21.5247 8.02967 21.0996 8.00404ZM18.1726 12.75C18.7046 12.75 19.1356 12.302 19.1356 11.75C19.1356 11.198 18.7046 10.75 18.1726 10.75C17.6396 10.75 17.2086 11.198 17.2086 11.75C17.2086 12.302 17.6396 12.75 18.1726 12.75Z" fill="currentColor"/>
<path fill-rule="evenodd" clip-rule="evenodd" d="M20.918 16.9999C20.9526 16.9985 20.987 17.0053 21.0184 17.0197C21.0499 17.0341 21.0775 17.0557 21.099 17.0828C21.1206 17.1099 21.1354 17.1417 21.1424 17.1756C21.1493 17.2095 21.1481 17.2445 21.139 17.2779C20.939 17.9899 20.62 18.5979 20.109 19.1079C19.36 19.8579 18.411 20.1889 17.239 20.3469C16.099 20.4999 14.644 20.4999 12.806 20.4999H10.694C8.856 20.4999 7.4 20.4999 6.261 20.3469C5.089 20.1889 4.14 19.8569 3.391 19.1089C2.643 18.3599 2.311 17.4109 2.153 16.2389C2 15.0989 2 13.6439 2 11.8059V11.6939C2 9.85588 2 8.39988 2.153 7.25988C2.311 6.08788 2.643 5.13888 3.391 4.38988C4.14 3.64188 5.089 3.30988 6.261 3.15188C7.401 2.99988 8.856 2.99988 10.694 2.99988H12.806C14.644 2.99988 16.1 2.99988 17.239 3.15288C18.411 3.31088 19.36 3.64288 20.109 4.39088C20.62 4.90288 20.939 5.50988 21.139 6.22188C21.1481 6.25525 21.1493 6.2903 21.1424 6.3242C21.1354 6.35809 21.1206 6.38987 21.099 6.41696C21.0775 6.44404 21.0499 6.46567 21.0184 6.48007C20.987 6.49448 20.9526 6.50127 20.918 6.49988H18.394C15.557 6.49988 13.057 8.73988 13.057 11.7499C13.057 14.7599 15.557 16.9999 18.394 16.9999H20.918ZM5.75 6.99988C5.55109 6.99988 5.36032 7.0789 5.21967 7.21955C5.07902 7.3602 5 7.55097 5 7.74988C5 7.94879 5.07902 8.13956 5.21967 8.28021C5.36032 8.42086 5.55109 8.49988 5.75 8.49988H9.75C9.94891 8.49988 10.1397 8.42086 10.2803 8.28021C10.421 8.13956 10.5 7.94879 10.5 7.74988C10.5 7.55097 10.421 7.3602 10.2803 7.21955C10.1397 7.0789 9.94891 6.99988 9.75 6.99988H5.75Z" fill="currentColor"/>
</svg>
